<svg width="150" height="150" viewBox="0 0 150 150" fill="none" xmlns="http://www.w3.org/2000/svg">
<rect width="150" height="150" rx="8" fill="#364151"/>
<path d="M41 134V77H98.5481C110.362 77 119.071 78.1281 124.673 80.3844C130.276 82.6406 133.077 86.5594 133.077 92.1406C133.077 95.7031 131.859 98.4344 129.423 100.334C127.048 102.234 123.607 103.57 119.101 104.342C114.655 105.055 109.296 105.5 103.024 105.678L103.755 104.966C108.322 104.966 112.554 105.084 116.452 105.322C120.349 105.559 123.76 106.094 126.683 106.925C129.606 107.756 131.889 109.033 133.534 110.755C135.178 112.477 136 114.852 136 117.88C136 121.561 134.66 124.589 131.981 126.964C129.301 129.339 125.495 131.12 120.563 132.308C115.63 133.436 109.814 134 103.115 134H41ZM63.8365 117.256H103.115C106.343 117.256 108.657 116.959 110.058 116.366C111.519 115.772 112.25 114.822 112.25 113.516C112.25 112.625 111.915 111.912 111.245 111.378C110.636 110.844 109.662 110.458 108.322 110.22C106.982 109.923 105.247 109.775 103.115 109.775H63.8365V117.256ZM63.8365 101.225H99.2788C102.506 101.225 104.821 100.928 106.221 100.334C107.683 99.7406 108.413 98.7906 108.413 97.4844C108.413 96.1188 107.683 95.1688 106.221 94.6344C104.821 94.0406 102.506 93.7438 99.2788 93.7438H63.8365V101.225Z" fill="white"/>
<path d="M12.0637 49.1154H40.8811C42.1237 51.0897 44.561 52.5 48.193 53.3462C51.9207 54.1923 57.1776 54.6154 63.9638 54.6154C69.0295 54.6154 72.8049 54.4038 75.29 53.9808C77.7751 53.5577 79.4 52.9936 80.1646 52.2885C81.0248 51.5128 81.4549 50.6667 81.4549 49.75C81.4549 48.5513 80.5947 47.7051 78.8743 47.2115C77.2494 46.6474 74.4776 46.2596 70.5588 46.0481C66.7356 45.8365 61.4787 45.6955 54.7881 45.625C48.3842 45.5545 42.6016 45.2724 37.4403 44.7788C32.3745 44.2147 28.0256 43.4391 24.3936 42.4519C20.7615 41.3942 17.9419 39.9487 15.9347 38.1154C14.0231 36.2821 13.0673 33.9904 13.0673 31.2404C13.0673 28.0673 14.4054 25.3526 17.0817 23.0962C19.8535 20.8397 23.5333 19.0769 28.1212 17.8077C32.8046 16.468 38.2049 15.516 44.322 14.9519C50.4392 14.3173 56.8908 14 63.677 14C74.6688 14 83.7011 14.8814 90.774 16.6442C97.847 18.4071 103.056 20.7692 106.401 23.7308C109.842 26.6923 111.515 30.0417 111.419 33.7788H83.4621C82.4107 31.8045 80.4991 30.4295 77.7273 29.6538C74.9555 28.8077 70.2721 28.3846 63.677 28.3846C57.3687 28.3846 52.7809 28.8077 49.9135 29.6538C47.0461 30.4295 45.6124 31.6635 45.6124 33.3558C45.6124 34.484 46.3292 35.3654 47.7629 36C49.2922 36.5641 51.9685 36.9872 55.7917 37.2692C59.7104 37.4808 65.3497 37.6571 72.7094 37.7981C77.8707 37.8686 82.8886 38.1154 87.7632 38.5385C92.7334 38.891 97.1779 39.5609 101.097 40.5481C105.015 41.4647 108.122 42.875 110.416 44.7788C112.805 46.6122 114 49.1506 114 52.3942C114 56.2724 111.945 59.4455 107.835 61.9135C103.725 64.3814 97.9425 66.1795 90.4873 67.3077C83.032 68.4359 74.1908 69 63.9638 69C54.9792 69 47.3806 68.5417 41.1679 67.625C35.0508 66.7083 30.0328 65.5096 26.114 64.0288C22.1952 62.4776 19.1367 60.8205 16.9383 59.0577C14.8355 57.2949 13.4496 55.5321 12.7806 53.7692C12.1115 52.0064 11.8726 50.4551 12.0637 49.1154Z" fill="white"/>
</svg>
