<svg width="150" height="150" viewBox="0 0 150 150" fill="none" xmlns="http://www.w3.org/2000/svg">
<rect width="150" height="150" rx="8" fill="#364151"/>
<path d="M26 138V71H89.6058C102.663 71 112.288 72.326 118.481 74.9781C124.673 77.6302 127.769 82.2365 127.769 88.7969C127.769 92.9844 126.423 96.1948 123.731 98.4281C121.106 100.661 117.303 102.232 112.322 103.139C107.409 103.977 101.486 104.5 94.5529 104.709L95.3606 103.872C100.409 103.872 105.087 104.011 109.394 104.291C113.702 104.57 117.471 105.198 120.702 106.175C123.933 107.152 126.457 108.653 128.274 110.677C130.091 112.701 131 115.492 131 119.052C131 123.379 129.519 126.938 126.558 129.73C123.596 132.521 119.389 134.615 113.938 136.011C108.486 137.337 102.058 138 94.6539 138H26ZM51.2404 118.319H94.6539C98.2212 118.319 100.779 117.97 102.327 117.272C103.942 116.574 104.75 115.457 104.75 113.922C104.75 112.875 104.38 112.037 103.639 111.409C102.966 110.781 101.889 110.328 100.409 110.048C98.9279 109.699 97.0096 109.525 94.6539 109.525H51.2404V118.319ZM51.2404 99.475H90.4135C93.9808 99.475 96.5385 99.126 98.0865 98.4281C99.7019 97.7302 100.51 96.6135 100.51 95.0781C100.51 93.4729 99.7019 92.3563 98.0865 91.7281C96.5385 91.0302 93.9808 90.6813 90.4135 90.6813H51.2404V99.475Z" fill="white"/>
<path d="M31.0543 50.2231H55.6339C56.6937 52.4846 58.7726 54.1 61.8705 55.0692C65.05 56.0385 69.5338 56.5231 75.322 56.5231C79.6428 56.5231 82.863 56.2808 84.9827 55.7962C87.1023 55.3115 88.4882 54.6654 89.1404 53.8577C89.8741 52.9692 90.241 52 90.241 50.95C90.241 49.5769 89.5073 48.6077 88.0398 48.0423C86.6539 47.3962 84.2897 46.9519 80.9472 46.7096C77.6862 46.4673 73.2024 46.3058 67.4957 46.225C62.0336 46.1442 57.1014 45.8212 52.699 45.2558C48.3783 44.6096 44.6689 43.7212 41.571 42.5904C38.4731 41.3789 36.0681 39.7231 34.3561 37.6231C32.7256 35.5231 31.9104 32.8981 31.9104 29.7481C31.9104 26.1135 33.0517 23.0038 35.3344 20.4192C37.6986 17.8346 40.8373 15.8154 44.7504 14.3615C48.7451 12.8269 53.3512 11.7365 58.5688 11.0904C63.7864 10.3635 69.2892 10 75.0775 10C84.4528 10 92.1568 11.0096 98.1896 13.0288C104.222 15.0481 108.665 17.7538 111.519 21.1462C114.454 24.5385 115.88 28.375 115.799 32.6558H91.953C91.0562 30.3942 89.4257 28.8192 87.0615 27.9308C84.6973 26.9615 80.7026 26.4769 75.0775 26.4769C69.6969 26.4769 65.7837 26.9615 63.338 27.9308C60.8922 28.8192 59.6694 30.2327 59.6694 32.1712C59.6694 33.4635 60.2808 34.4731 61.5037 35.2C62.8081 35.8462 65.0907 36.3308 68.3517 36.6538C71.6942 36.8962 76.5041 37.0981 82.7815 37.2596C87.1838 37.3404 91.4638 37.6231 95.6216 38.1077C99.8608 38.5115 103.652 39.2788 106.994 40.4096C110.337 41.4596 112.986 43.075 114.943 45.2558C116.981 47.3558 118 50.2635 118 53.9788C118 58.4212 116.247 62.0558 112.742 64.8827C109.236 67.7096 104.304 69.7692 97.945 71.0615C91.5861 72.3539 84.0451 73 75.322 73C67.6588 73 61.1776 72.475 55.8785 71.425C50.6609 70.375 46.3809 69.0019 43.0384 67.3058C39.6959 65.5289 37.0871 63.6308 35.2121 61.6115C33.4186 59.5923 32.2365 57.5731 31.6658 55.5538C31.0951 53.5346 30.8913 51.7577 31.0543 50.2231Z" fill="white"/>
</svg>
