<svg width="400" height="49" viewBox="0 0 400 49" fill="none" xmlns="http://www.w3.org/2000/svg">
<g clip-path="url(#clip0_1_147)">
<path d="M195.532 23.8762V16.9655C195.532 15.952 195.335 15.0997 194.94 14.4086C194.545 13.6945 193.848 13.1647 192.849 12.8192C191.873 12.4737 190.49 12.3009 188.701 12.3009C187.61 12.3009 186.552 12.4276 185.53 12.681C184.531 12.9113 183.637 13.2108 182.847 13.5794C182.08 13.9249 181.488 14.2819 181.069 14.6505L181.035 12.9574C181.127 12.5197 181.43 11.9438 181.941 11.2297C182.475 10.5156 183.23 9.79003 184.206 9.0529C185.182 8.31577 186.401 7.69381 187.865 7.18704C189.329 6.65722 191.06 6.39231 193.058 6.39231C194.359 6.39231 195.613 6.53053 196.821 6.80695C198.03 7.06034 199.098 7.47498 200.028 8.05086C200.98 8.62675 201.735 9.39843 202.293 10.3659C202.85 11.3104 203.129 12.4852 203.129 13.8903V23.8762H195.532ZM173.821 23.8762V0H181.418V23.8762H173.821Z" fill="#101828"/>
<path d="M146.145 17.8639H153.15C153.452 18.5089 154.045 18.9696 154.928 19.246C155.834 19.5224 157.111 19.6606 158.761 19.6606C159.992 19.6606 160.91 19.5915 161.514 19.4533C162.118 19.3151 162.513 19.1308 162.699 18.9005C162.908 18.6471 163.013 18.3707 163.013 18.0712C163.013 17.6796 162.804 17.4032 162.385 17.2419C161.99 17.0576 161.317 16.931 160.364 16.8618C159.435 16.7927 158.157 16.7467 156.531 16.7236C154.974 16.7006 153.568 16.6085 152.314 16.4472C151.083 16.2629 150.025 16.0095 149.143 15.687C148.26 15.3415 147.574 14.8693 147.086 14.2704C146.622 13.6714 146.389 12.9228 146.389 12.0244C146.389 10.9878 146.715 10.101 147.365 9.36384C148.039 8.6267 148.933 8.05082 150.049 7.63618C151.187 7.19851 152.5 6.88753 153.987 6.70325C155.474 6.49593 157.042 6.39227 158.691 6.39227C161.363 6.39227 163.559 6.68022 165.278 7.2561C166.997 7.83198 168.263 8.60367 169.076 9.57115C169.913 10.5386 170.319 11.6328 170.296 12.8537H163.501C163.245 12.2087 162.78 11.7595 162.107 11.5061C161.433 11.2297 160.294 11.0915 158.691 11.0915C157.158 11.0915 156.043 11.2297 155.346 11.5061C154.649 11.7595 154.3 12.1626 154.3 12.7155C154.3 13.084 154.475 13.372 154.823 13.5793C155.195 13.7636 155.845 13.9018 156.775 13.9939C157.727 14.0631 159.098 14.1206 160.887 14.1667C162.141 14.1897 163.361 14.2704 164.546 14.4086C165.754 14.5238 166.835 14.7426 167.787 15.0651C168.74 15.3645 169.495 15.8253 170.052 16.4472C170.633 17.0461 170.924 17.8754 170.924 18.935C170.924 20.202 170.424 21.2386 169.425 22.0448C168.426 22.851 167.02 23.4384 165.208 23.807C163.396 24.1756 161.247 24.3599 158.761 24.3599C156.577 24.3599 154.73 24.2101 153.22 23.9107C151.733 23.6112 150.513 23.2196 149.561 22.7359C148.608 22.2291 147.865 21.6878 147.33 21.1119C146.819 20.536 146.482 19.9601 146.32 19.3842C146.157 18.8083 146.099 18.3016 146.145 17.8639Z" fill="#101828"/>
<path d="M128.891 24.3599C125.499 24.3599 122.653 24.0604 120.353 23.4615C118.053 22.8395 116.322 21.872 115.161 20.559C113.999 19.246 113.418 17.5299 113.418 15.4106C113.418 13.3144 113.999 11.6098 115.161 10.2968C116.322 8.96072 118.053 7.98171 120.353 7.35976C122.653 6.71477 125.499 6.39227 128.891 6.39227C132.26 6.39227 135.071 6.71477 137.325 7.35976C139.602 7.98171 141.309 8.96072 142.448 10.2968C143.61 11.6098 144.19 13.3144 144.19 15.4106C144.19 17.5299 143.61 19.246 142.448 20.559C141.309 21.872 139.602 22.8395 137.325 23.4615C135.071 24.0604 132.26 24.3599 128.891 24.3599ZM128.891 19.6606C130.494 19.6606 131.854 19.5109 132.969 19.2115C134.107 18.889 134.967 18.4167 135.548 17.7948C136.152 17.1498 136.454 16.3551 136.454 15.4106C136.454 14.4892 136.163 13.706 135.583 13.061C135.002 12.416 134.142 11.9323 133.004 11.6098C131.888 11.2643 130.518 11.0915 128.891 11.0915C127.265 11.0915 125.871 11.2643 124.709 11.6098C123.571 11.9323 122.7 12.416 122.096 13.061C121.492 13.683 121.19 14.4662 121.19 15.4106C121.19 16.3551 121.48 17.1498 122.061 17.7948C122.665 18.4167 123.536 18.889 124.675 19.2115C125.836 19.5109 127.242 19.6606 128.891 19.6606Z" fill="#101828"/>
<path d="M95.9899 24.3599C92.5978 24.3599 89.7518 24.0604 87.4517 23.4615C85.1516 22.8395 83.4208 21.872 82.2591 20.559C81.0975 19.246 80.5167 17.5299 80.5167 15.4106C80.5167 13.3144 81.0975 11.6098 82.2591 10.2968C83.4208 8.96072 85.1516 7.98171 87.4517 7.35976C89.7518 6.71477 92.5978 6.39227 95.9899 6.39227C99.3587 6.39227 102.17 6.71477 104.423 7.35976C106.7 7.98171 108.408 8.96072 109.546 10.2968C110.708 11.6098 111.289 13.3144 111.289 15.4106C111.289 17.5299 110.708 19.246 109.546 20.559C108.408 21.872 106.7 22.8395 104.423 23.4615C102.17 24.0604 99.3587 24.3599 95.9899 24.3599ZM95.9899 19.6606C97.5929 19.6606 98.9521 19.5109 100.067 19.2115C101.206 18.889 102.065 18.4167 102.646 17.7948C103.25 17.1498 103.552 16.3551 103.552 15.4106C103.552 14.4892 103.262 13.706 102.681 13.061C102.1 12.416 101.241 11.9323 100.102 11.6098C98.9869 11.2643 97.6162 11.0915 95.9899 11.0915C94.3636 11.0915 92.9696 11.2643 91.8079 11.6098C90.6695 11.9323 89.7983 12.416 89.1942 13.061C88.5901 13.683 88.2881 14.4662 88.2881 15.4106C88.2881 16.3551 88.5785 17.1498 89.1593 17.7948C89.7634 18.4167 90.6346 18.889 91.7731 19.2115C92.9347 19.5109 94.3403 19.6606 95.9899 19.6606Z" fill="#101828"/>
<path d="M27.3422 6.91057H34.9394V23.8761H27.3422V6.91057ZM46.5792 6.39227C47.9034 6.39227 49.158 6.542 50.3429 6.84146C51.551 7.11789 52.6197 7.59011 53.5491 8.25814C54.5016 8.92616 55.2567 9.83606 55.8143 10.9878C56.3719 12.1166 56.6507 13.5332 56.6507 15.2379V23.8761H49.0535V16.2053C49.0535 14.5468 48.6237 13.3605 47.764 12.6464C46.9044 11.9092 45.3594 11.5407 43.129 11.5407C41.8977 11.5407 40.7128 11.7019 39.5744 12.0244C38.436 12.3469 37.4369 12.727 36.5773 13.1647C35.7177 13.6023 35.0672 14.0515 34.6257 14.5122L34.556 13.0956C34.649 12.6118 34.951 11.9899 35.4621 11.2297C35.9965 10.4695 36.7516 9.7324 37.7274 9.01831C38.7031 8.28117 39.9229 7.65922 41.3866 7.15244C42.8502 6.64566 44.5811 6.39227 46.5792 6.39227ZM67.9071 6.39227C69.2081 6.39227 70.4627 6.542 71.6708 6.84146C72.879 7.11789 73.9477 7.59011 74.877 8.25814C75.8296 8.92616 76.5846 9.83606 77.1422 10.9878C77.6998 12.1166 77.9786 13.5332 77.9786 15.2379V23.8761H70.3814V16.2053C70.3814 14.5468 69.94 13.3605 69.0571 12.6464C68.1975 11.9092 66.6641 11.5407 64.457 11.5407C63.2024 11.5407 62.0059 11.7019 60.8675 12.0244C59.7523 12.3469 58.7533 12.727 57.8704 13.1647C57.0108 13.6023 56.3603 14.0515 55.9188 14.5122L55.8491 12.7846C55.9421 12.37 56.279 11.8171 56.8598 11.126C57.4406 10.4119 58.2421 9.69785 59.2644 8.98375C60.2867 8.26966 61.518 7.65922 62.9585 7.15244C64.4221 6.64566 66.0717 6.39227 67.9071 6.39227Z" fill="#101828"/>
<path d="M0.0154887 17.8639H7.02025C7.32228 18.5089 7.91473 18.9696 8.79758 19.246C9.70367 19.5224 10.9815 19.6606 12.631 19.6606C13.8624 19.6606 14.7801 19.5915 15.3842 19.4533C15.9882 19.3151 16.3832 19.1308 16.569 18.9005C16.7781 18.6471 16.8827 18.3707 16.8827 18.0712C16.8827 17.6796 16.6736 17.4032 16.2554 17.2419C15.8604 17.0576 15.1867 16.931 14.2341 16.8618C13.3048 16.7927 12.027 16.7467 10.4007 16.7236C8.84405 16.7006 7.43845 16.6085 6.18386 16.4472C4.95251 16.2629 3.89541 16.0095 3.01255 15.687C2.1297 15.3415 1.44432 14.8693 0.956427 14.2704C0.491766 13.6714 0.259436 12.9228 0.259436 12.0244C0.259436 10.9878 0.584698 10.101 1.23522 9.36384C1.90898 8.6267 2.80346 8.05082 3.91864 7.63618C5.05706 7.19851 6.36973 6.88753 7.85664 6.70325C9.34356 6.49593 10.9118 6.39227 12.5613 6.39227C15.2331 6.39227 17.4287 6.68022 19.1479 7.2561C20.8672 7.83198 22.1334 8.60367 22.9465 9.57115C23.7829 10.5386 24.1895 11.6328 24.1662 12.8537H17.3706C17.115 12.2087 16.6504 11.7595 15.9766 11.5061C15.3028 11.2297 14.1644 11.0915 12.5613 11.0915C11.028 11.0915 9.91277 11.2297 9.21578 11.5061C8.51879 11.7595 8.17029 12.1626 8.17029 12.7155C8.17029 13.084 8.34454 13.372 8.69303 13.5793C9.06476 13.7636 9.71529 13.9018 10.6446 13.9939C11.5972 14.0631 12.9679 14.1206 14.7569 14.1667C16.0114 14.1897 17.2312 14.2704 18.4161 14.4086C19.6242 14.5238 20.7045 14.7426 21.6571 15.0651C22.6096 15.3645 23.3647 15.8253 23.9223 16.4472C24.5031 17.0461 24.7935 17.8754 24.7935 18.935C24.7935 20.202 24.294 21.2386 23.295 22.0448C22.296 22.851 20.8904 23.4384 19.0782 23.807C17.266 24.1756 15.117 24.3599 12.631 24.3599C10.4471 24.3599 8.6001 24.2101 7.08995 23.9107C5.60304 23.6112 4.3833 23.2196 3.43075 22.7359C2.47819 22.2291 1.73473 21.6878 1.20037 21.1119C0.689247 20.536 0.352368 19.9601 0.189737 19.3842C0.0271052 18.8083 -0.0309774 18.3016 0.0154887 17.8639Z" fill="#101828"/>
<path d="M367.154 3.83539H400V9.78499H367.154V3.83539ZM379.629 9.37791H387.525V23.8762H379.629V9.37791Z" fill="#101828"/>
<path d="M332.708 16.5174H341.33C341.478 16.9558 341.909 17.3316 342.625 17.6447C343.341 17.937 344.299 18.1666 345.499 18.3336C346.721 18.4798 348.131 18.5528 349.731 18.5528C351.31 18.5528 352.553 18.5111 353.458 18.4276C354.385 18.3232 355.037 18.1562 355.416 17.9265C355.795 17.676 355.985 17.342 355.985 16.9245C355.985 16.5279 355.679 16.2252 355.069 16.0164C354.458 15.7868 353.374 15.6302 351.816 15.5467C350.258 15.4632 348.068 15.4215 345.247 15.4215C343.141 15.4215 341.32 15.3275 339.783 15.1396C338.267 14.9309 337.014 14.6177 336.025 14.2002C335.056 13.7618 334.34 13.2191 333.877 12.5719C333.414 11.9039 333.182 11.1106 333.182 10.1921C333.182 8.6055 333.719 7.30077 334.793 6.27785C335.888 5.23406 337.53 4.46166 339.72 3.96064C341.931 3.43874 344.689 3.1778 347.994 3.1778C352.837 3.1778 356.532 3.87714 359.08 5.27581C361.648 6.65362 362.933 8.64725 362.933 11.2567H354.753C354.648 10.5678 353.995 10.0459 352.795 9.69105C351.595 9.31528 349.889 9.1274 347.679 9.1274C345.489 9.1274 343.857 9.25265 342.783 9.50316C341.73 9.75367 341.204 10.1816 341.204 10.787C341.204 11.1002 341.351 11.3507 341.646 11.5386C341.941 11.7264 342.446 11.883 343.162 12.0083C343.899 12.1126 344.931 12.1857 346.257 12.2275C347.584 12.2692 349.268 12.2901 351.31 12.2901C353.563 12.2901 355.479 12.4049 357.058 12.6345C358.638 12.8433 359.911 13.1669 360.88 13.6053C361.87 14.0436 362.585 14.6073 363.028 15.2962C363.47 15.9642 363.691 16.7575 363.691 17.676C363.691 19.2626 363.185 20.5569 362.175 21.5589C361.164 22.561 359.564 23.3021 357.374 23.7822C355.185 24.2624 352.321 24.5024 348.784 24.5024C346.784 24.5024 344.941 24.3876 343.257 24.158C341.594 23.9283 340.109 23.5943 338.804 23.1559C337.498 22.6967 336.393 22.1435 335.488 21.4963C334.582 20.8283 333.888 20.0872 333.403 19.273C332.94 18.438 332.708 17.5195 332.708 16.5174Z" fill="#101828"/>
<path d="M309.019 24.5024C304.429 24.5024 300.734 24.1058 297.934 23.3125C295.133 22.4983 293.091 21.3084 291.807 19.7427C290.543 18.1562 289.912 16.1939 289.912 13.8558C289.912 11.5177 290.543 9.56579 291.807 8.0001C293.091 6.41354 295.133 5.22362 297.934 4.43034C300.734 3.61618 304.429 3.20911 309.019 3.20911C313.609 3.20911 317.304 3.61618 320.105 4.43034C322.905 5.22362 324.937 6.41354 326.2 8.0001C327.484 9.56579 328.127 11.5177 328.127 13.8558C328.127 16.1939 327.484 18.1562 326.2 19.7427C324.937 21.3084 322.905 22.4983 320.105 23.3125C317.304 24.1058 313.609 24.5024 309.019 24.5024ZM309.019 18.5528C311.188 18.5528 313.062 18.4276 314.641 18.1771C316.22 17.9057 317.441 17.436 318.304 16.7679C319.168 16.079 319.599 15.1083 319.599 13.8558C319.599 12.6032 319.168 11.6429 318.304 10.9749C317.441 10.286 316.22 9.8163 314.641 9.56579C313.062 9.2944 311.188 9.15871 309.019 9.15871C306.85 9.15871 304.945 9.2944 303.303 9.56579C301.681 9.8163 300.408 10.286 299.481 10.9749C298.576 11.6429 298.123 12.6032 298.123 13.8558C298.123 15.1083 298.576 16.079 299.481 16.7679C300.408 17.436 301.681 17.9057 303.303 18.1771C304.945 18.4276 306.85 18.5528 309.019 18.5528Z" fill="#101828"/>
<path d="M266.38 24.5024C261.79 24.5024 258.095 24.1058 255.295 23.3125C252.495 22.4983 250.452 21.3084 249.168 19.7427C247.905 18.1562 247.273 16.1939 247.273 13.8558C247.273 11.5177 247.905 9.56579 249.168 8.0001C250.452 6.41354 252.495 5.22362 255.295 4.43034C258.095 3.61618 261.79 3.20911 266.38 3.20911C270.97 3.20911 274.666 3.61618 277.466 4.43034C280.266 5.22362 282.298 6.41354 283.561 8.0001C284.846 9.56579 285.488 11.5177 285.488 13.8558C285.488 16.1939 284.846 18.1562 283.561 19.7427C282.298 21.3084 280.266 22.4983 277.466 23.3125C274.666 24.1058 270.97 24.5024 266.38 24.5024ZM266.38 18.5528C268.549 18.5528 270.423 18.4276 272.002 18.1771C273.581 17.9057 274.802 17.436 275.666 16.7679C276.529 16.079 276.961 15.1083 276.961 13.8558C276.961 12.6032 276.529 11.6429 275.666 10.9749C274.802 10.286 273.581 9.8163 272.002 9.56579C270.423 9.2944 268.549 9.15871 266.38 9.15871C264.212 9.15871 262.306 9.2944 260.664 9.56579C259.043 9.8163 257.769 10.286 256.843 10.9749C255.937 11.6429 255.484 12.6032 255.484 13.8558C255.484 15.1083 255.937 16.079 256.843 16.7679C257.769 17.436 259.043 17.9057 260.664 18.1771C262.306 18.4276 264.212 18.5528 266.38 18.5528Z" fill="#101828"/>
<path d="M209.385 23.8762V3.83539H229.282C233.367 3.83539 236.378 4.23203 238.315 5.02531C240.252 5.81859 241.22 7.19639 241.22 9.15872C241.22 10.4113 240.799 11.3716 239.957 12.0396C239.136 12.7076 237.946 13.1773 236.388 13.4487C234.851 13.6992 232.998 13.8558 230.83 13.9184L231.082 13.6679C232.661 13.6679 234.125 13.7096 235.472 13.7931C236.82 13.8766 237.999 14.0645 239.01 14.3568C240.02 14.6491 240.81 15.0979 241.378 15.7033C241.947 16.3087 242.231 17.1437 242.231 18.2084C242.231 19.5027 241.768 20.5673 240.841 21.4024C239.915 22.2374 238.599 22.8637 236.894 23.2812C235.188 23.6778 233.177 23.8762 230.861 23.8762H209.385ZM217.281 17.9892H230.861C231.977 17.9892 232.777 17.8848 233.262 17.676C233.767 17.4673 234.02 17.1333 234.02 16.674C234.02 16.3609 233.904 16.1104 233.672 15.9225C233.462 15.7346 233.125 15.5989 232.661 15.5154C232.198 15.411 231.598 15.3588 230.861 15.3588H217.281V17.9892ZM217.281 12.3527H229.535C230.651 12.3527 231.451 12.2483 231.935 12.0396C232.44 11.8308 232.693 11.4968 232.693 11.0375C232.693 10.5574 232.44 10.2234 231.935 10.0355C231.451 9.82674 230.651 9.72236 229.535 9.72236H217.281V12.3527Z" fill="#101828"/>
<path d="M350.217 38.7669H352.128V46.0117H350.217V38.7669ZM355.524 38.6066C355.975 38.6066 356.392 38.6649 356.774 38.7815C357.156 38.8981 357.49 39.0779 357.774 39.3208C358.058 39.5638 358.279 39.8748 358.435 40.2538C358.592 40.6231 358.671 41.0652 358.671 41.5803V46.0117H356.759V41.9156C356.759 41.3033 356.607 40.8563 356.304 40.5745C356.01 40.2829 355.524 40.1372 354.848 40.1372C354.338 40.1372 353.878 40.2343 353.466 40.4287C353.054 40.6231 352.721 40.8709 352.466 41.1721C352.212 41.4637 352.065 41.7698 352.025 42.0905L352.011 41.3471C352.06 41.0069 352.172 40.6765 352.349 40.3558C352.525 40.0351 352.76 39.7436 353.054 39.4812C353.358 39.2091 353.716 38.9953 354.128 38.8398C354.539 38.6843 355.005 38.6066 355.524 38.6066Z" fill="#101828" fill-opacity="0.6"/>
<path d="M344.32 46.1866C343.399 46.1866 342.585 46.0409 341.879 45.7493C341.183 45.4578 340.639 45.0351 340.247 44.4811C339.855 43.9175 339.659 43.2275 339.659 42.4112C339.659 41.5949 339.855 40.9049 340.247 40.3412C340.639 39.7679 341.183 39.3354 341.879 39.0439C342.585 38.7523 343.399 38.6066 344.32 38.6066C345.241 38.6066 346.045 38.7523 346.731 39.0439C347.427 39.3354 347.971 39.7679 348.363 40.3412C348.755 40.9049 348.951 41.5949 348.951 42.4112C348.951 43.2275 348.755 43.9175 348.363 44.4811C347.971 45.0351 347.427 45.4578 346.731 45.7493C346.045 46.0409 345.241 46.1866 344.32 46.1866ZM344.32 44.7289C344.83 44.7289 345.285 44.6415 345.687 44.4665C346.099 44.2819 346.422 44.0195 346.657 43.6794C346.893 43.3295 347.01 42.9068 347.01 42.4112C347.01 41.9156 346.893 41.4928 346.657 41.143C346.422 40.7834 346.104 40.5113 345.702 40.3267C345.3 40.142 344.839 40.0497 344.32 40.0497C343.81 40.0497 343.35 40.142 342.938 40.3267C342.526 40.5113 342.198 40.7786 341.953 41.1284C341.718 41.4782 341.6 41.9058 341.6 42.4112C341.6 42.9068 341.718 43.3295 341.953 43.6794C342.188 44.0195 342.512 44.2819 342.923 44.4665C343.335 44.6415 343.8 44.7289 344.32 44.7289Z" fill="#101828" fill-opacity="0.6"/>
<path d="M338.416 35.5891V37.2509H336.196V35.5891H338.416ZM336.343 38.7669H338.254V46.0117H336.343V38.7669Z" fill="#101828" fill-opacity="0.6"/>
<path d="M329.483 38.7669H335.158V40.2392H329.483V38.7669ZM331.365 36.7844H333.276V46.0117H331.365V36.7844Z" fill="#101828" fill-opacity="0.6"/>
<path d="M323.078 46.1721C322.352 46.1721 321.691 46.0166 321.093 45.7056C320.505 45.3849 320.034 44.9427 319.682 44.3791C319.338 43.8057 319.167 43.1449 319.167 42.3966C319.167 41.6289 319.343 40.9632 319.696 40.3995C320.049 39.8359 320.524 39.3986 321.122 39.0876C321.73 38.7669 322.416 38.6066 323.181 38.6066C324.024 38.6066 324.7 38.7766 325.21 39.1168C325.729 39.4472 326.106 39.8991 326.342 40.4724C326.577 41.0458 326.694 41.6872 326.694 42.3966C326.694 42.8242 326.626 43.2615 326.489 43.7085C326.351 44.1459 326.141 44.554 325.856 44.933C325.572 45.3023 325.2 45.6036 324.739 45.8368C324.278 46.0603 323.725 46.1721 323.078 46.1721ZM323.695 44.7144C324.274 44.7144 324.773 44.6172 325.195 44.4228C325.616 44.2285 325.94 43.9564 326.165 43.6065C326.391 43.2567 326.503 42.8534 326.503 42.3966C326.503 41.901 326.386 41.4831 326.15 41.143C325.925 40.7931 325.602 40.5307 325.18 40.3558C324.769 40.1712 324.274 40.0789 323.695 40.0789C322.882 40.0789 322.25 40.2926 321.799 40.7202C321.348 41.1381 321.122 41.6969 321.122 42.3966C321.122 42.8631 321.23 43.2712 321.446 43.6211C321.661 43.9612 321.96 44.2285 322.343 44.4228C322.735 44.6172 323.186 44.7144 323.695 44.7144ZM326.503 38.7669H328.415V46.0117H326.636C326.636 46.0117 326.621 45.9194 326.592 45.7348C326.572 45.5404 326.552 45.2974 326.533 45.0059C326.513 44.7144 326.503 44.4277 326.503 44.1459V38.7669Z" fill="#101828" fill-opacity="0.6"/>
<path d="M317.958 40.21L312.151 45.1371L311.945 44.5832H318.061V46.0117H310.577V44.5832L316.385 39.6561L316.591 40.21H310.577V38.7669H317.958V40.21Z" fill="#101828" fill-opacity="0.6"/>
<path d="M309.025 35.5891V37.2509H306.805V35.5891H309.025ZM306.952 38.7669H308.864V46.0117H306.952V38.7669Z" fill="#101828" fill-opacity="0.6"/>
<path d="M290.413 38.7669H292.324V46.0117H290.413V38.7669ZM295.72 38.6066C296.171 38.6066 296.588 38.6649 296.97 38.7815C297.352 38.8981 297.686 39.0779 297.97 39.3208C298.254 39.5638 298.475 39.8748 298.632 40.2538C298.788 40.6231 298.867 41.0652 298.867 41.5803V46.0117H296.955V41.9156C296.955 41.3033 296.804 40.8563 296.5 40.5745C296.206 40.2829 295.72 40.1372 295.044 40.1372C294.535 40.1372 294.074 40.2343 293.662 40.4287C293.251 40.6231 292.917 40.8709 292.662 41.1721C292.408 41.4637 292.261 41.7698 292.221 42.0905L292.207 41.3471C292.256 41.0069 292.368 40.6765 292.545 40.3558C292.721 40.0351 292.956 39.7436 293.251 39.4812C293.554 39.2091 293.912 38.9953 294.324 38.8398C294.735 38.6843 295.201 38.6066 295.72 38.6066ZM302.087 38.6066C302.537 38.6066 302.954 38.6649 303.336 38.7815C303.718 38.8981 304.052 39.0779 304.336 39.3208C304.62 39.5638 304.841 39.8748 304.998 40.2538C305.164 40.6231 305.247 41.0652 305.247 41.5803V46.0117H303.336V41.9156C303.336 41.3033 303.184 40.8563 302.88 40.5745C302.577 40.2829 302.087 40.1372 301.41 40.1372C300.901 40.1372 300.44 40.2343 300.028 40.4287C299.617 40.6231 299.283 40.8709 299.028 41.1721C298.774 41.4637 298.632 41.7698 298.602 42.0905L298.573 41.3033C298.622 40.9826 298.739 40.6619 298.926 40.3412C299.112 40.0205 299.357 39.729 299.661 39.4666C299.965 39.2042 300.317 38.9953 300.719 38.8398C301.131 38.6843 301.587 38.6066 302.087 38.6066Z" fill="#101828" fill-opacity="0.6"/>
<path d="M288.817 35.5891V37.2509H286.597V35.5891H288.817ZM286.744 38.7669H288.655V46.0117H286.744V38.7669Z" fill="#101828" fill-opacity="0.6"/>
<path d="M279.884 38.7669H285.559V40.2392H279.884V38.7669ZM281.766 36.7844H283.677V46.0117H281.766V36.7844Z" fill="#101828" fill-opacity="0.6"/>
<path d="M275.229 46.1866C274.582 46.1866 274.028 46.0749 273.567 45.8514C273.116 45.6181 272.749 45.3169 272.465 44.9476C272.18 44.5686 271.97 44.1556 271.832 43.7085C271.695 43.2615 271.626 42.8242 271.626 42.3966C271.626 41.8621 271.69 41.3665 271.818 40.9097C271.955 40.453 272.166 40.0546 272.45 39.7144C272.734 39.3646 273.102 39.0925 273.552 38.8981C274.013 38.7037 274.572 38.6066 275.229 38.6066C275.964 38.6066 276.625 38.7669 277.213 39.0876C277.801 39.4083 278.267 39.8553 278.61 40.4287C278.963 40.9923 279.139 41.6483 279.139 42.3966C279.139 43.1643 278.963 43.8349 278.61 44.4082C278.257 44.9719 277.787 45.4092 277.199 45.7202C276.611 46.0312 275.954 46.1866 275.229 46.1866ZM274.611 44.7144C275.131 44.7144 275.581 44.6172 275.964 44.4228C276.356 44.2285 276.655 43.9612 276.86 43.6211C277.076 43.2712 277.184 42.8631 277.184 42.3966C277.184 41.6969 276.958 41.1333 276.508 40.7057C276.067 40.2781 275.434 40.0643 274.611 40.0643C274.092 40.0643 273.616 40.1566 273.185 40.3412C272.763 40.5259 272.43 40.7931 272.185 41.143C271.94 41.4831 271.818 41.901 271.818 42.3966C271.818 42.8631 271.93 43.2712 272.156 43.6211C272.381 43.9612 272.705 44.2285 273.126 44.4228C273.548 44.6172 274.043 44.7144 274.611 44.7144ZM269.906 38.7669H271.729L271.818 40.6911V48.9271H269.906V38.7669Z" fill="#101828" fill-opacity="0.6"/>
<path d="M262.381 46.2012C261.117 46.2012 260.034 46.0068 259.132 45.6181C258.24 45.2197 257.554 44.656 257.074 43.9272C256.603 43.1983 256.368 42.3237 256.368 41.3033C256.368 40.2732 256.603 39.3937 257.074 38.6648C257.554 37.936 258.24 37.3772 259.132 36.9885C260.034 36.59 261.117 36.3908 262.381 36.3908C263.656 36.3908 264.739 36.59 265.631 36.9885C266.522 37.3772 267.204 37.936 267.674 38.6648C268.154 39.3937 268.395 40.2732 268.395 41.3033C268.395 42.3237 268.154 43.1983 267.674 43.9272C267.204 44.656 266.522 45.2197 265.631 45.6181C264.739 46.0068 263.656 46.2012 262.381 46.2012ZM262.381 44.5248C263.165 44.5248 263.852 44.4082 264.44 44.175C265.038 43.9417 265.503 43.587 265.836 43.1108C266.179 42.6347 266.351 42.0321 266.351 41.3033C266.351 40.5744 266.179 39.9719 265.836 39.4957C265.503 39.0195 265.038 38.6648 264.44 38.4316C263.852 38.1886 263.165 38.0672 262.381 38.0672C261.607 38.0672 260.916 38.1886 260.308 38.4316C259.701 38.6648 259.225 39.0195 258.882 39.4957C258.539 39.9719 258.368 40.5744 258.368 41.3033C258.368 42.0321 258.539 42.6347 258.882 43.1108C259.225 43.587 259.701 43.9417 260.308 44.175C260.916 44.4082 261.607 44.5248 262.381 44.5248Z" fill="#101828" fill-opacity="0.6"/>
<path d="M247.909 46.172C247.262 46.172 246.709 46.0602 246.248 45.8367C245.787 45.6035 245.415 45.3022 245.131 44.933C244.846 44.5539 244.636 44.1458 244.498 43.7085C244.361 43.2614 244.293 42.8241 244.293 42.3965C244.293 41.8621 244.356 41.3664 244.484 40.9097C244.621 40.4529 244.832 40.0545 245.116 39.7144C245.4 39.3645 245.773 39.0924 246.233 38.898C246.694 38.7037 247.253 38.6065 247.909 38.6065C248.664 38.6065 249.33 38.7669 249.909 39.0875C250.497 39.3985 250.958 39.8358 251.291 40.3995C251.634 40.9631 251.805 41.6288 251.805 42.3965C251.805 43.1448 251.634 43.8057 251.291 44.379C250.948 44.9427 250.482 45.3848 249.894 45.7055C249.306 46.0165 248.644 46.172 247.909 46.172ZM247.292 44.7143C247.811 44.7143 248.262 44.6171 248.644 44.4228C249.027 44.2284 249.321 43.9611 249.526 43.621C249.742 43.2712 249.85 42.863 249.85 42.3965C249.85 41.6968 249.625 41.1332 249.174 40.7056C248.733 40.278 248.105 40.0642 247.292 40.0642C246.723 40.0642 246.228 40.1565 245.807 40.3412C245.385 40.5258 245.057 40.7931 244.822 41.1429C244.596 41.483 244.484 41.9009 244.484 42.3965C244.484 42.8533 244.596 43.2566 244.822 43.6064C245.047 43.9563 245.371 44.2284 245.792 44.4228C246.214 44.6171 246.713 44.7143 247.292 44.7143ZM244.484 35.8514V44.1458C244.484 44.4568 244.469 44.792 244.44 45.1516C244.41 45.5015 244.381 45.7881 244.351 46.0117H242.572V35.8514H244.484Z" fill="#101828" fill-opacity="0.6"/>
<path d="M239.121 43.6065H240.974C240.895 44.1021 240.685 44.5443 240.342 44.933C240.008 45.3217 239.553 45.6279 238.974 45.8514C238.396 46.0749 237.69 46.1866 236.857 46.1866C235.926 46.1866 235.103 46.0409 234.387 45.7493C233.672 45.4481 233.113 45.0156 232.711 44.452C232.309 43.8883 232.108 43.2081 232.108 42.4112C232.108 41.6143 232.304 40.934 232.696 40.3704C233.088 39.797 233.632 39.3597 234.328 39.0585C235.034 38.7572 235.857 38.6066 236.798 38.6066C237.759 38.6066 238.558 38.7572 239.195 39.0585C239.832 39.3597 240.302 39.8165 240.606 40.4287C240.92 41.0312 241.052 41.8038 241.003 42.7465H234.034C234.083 43.1157 234.221 43.451 234.446 43.7523C234.681 44.0535 234.995 44.2916 235.387 44.4665C235.789 44.6415 236.264 44.7289 236.813 44.7289C237.421 44.7289 237.925 44.6269 238.327 44.4228C238.739 44.209 239.004 43.9369 239.121 43.6065ZM236.71 40.0497C236.004 40.0497 235.431 40.2052 234.99 40.5162C234.549 40.8174 234.265 41.1916 234.137 41.6386H239.107C239.058 41.1527 238.822 40.7688 238.401 40.487C237.989 40.1955 237.426 40.0497 236.71 40.0497Z" fill="#101828" fill-opacity="0.6"/>
<path d="M217.886 46.0117L213.872 36.5803H216.033L219.43 44.933L218.797 44.9476L222.032 36.5803H224.281L227.516 44.9476L226.884 44.933L230.28 36.5803H232.397L228.427 46.0117H226.031L222.855 37.8339H223.473L220.282 46.0117H217.886Z" fill="#101828" fill-opacity="0.6"/>
<path d="M202.834 41.3762H209.597V42.761H202.834V41.3762ZM207.009 39.3208V44.8309H205.422V39.3208H207.009Z" fill="#101828" fill-opacity="0.6"/>
<path d="M189.535 38.7669H191.446V46.0117H189.535V38.7669ZM194.842 38.6066C195.293 38.6066 195.71 38.6649 196.092 38.7815C196.474 38.8981 196.808 39.0779 197.092 39.3208C197.376 39.5638 197.597 39.8748 197.753 40.2538C197.91 40.6231 197.989 41.0652 197.989 41.5803V46.0117H196.077V41.9156C196.077 41.3033 195.925 40.8563 195.622 40.5745C195.328 40.2829 194.842 40.1372 194.166 40.1372C193.656 40.1372 193.196 40.2343 192.784 40.4287C192.372 40.6231 192.039 40.8709 191.784 41.1721C191.529 41.4637 191.382 41.7698 191.343 42.0905L191.329 41.3471C191.378 41.0069 191.49 40.6765 191.667 40.3558C191.843 40.0351 192.078 39.7436 192.372 39.4812C192.676 39.2091 193.034 38.9953 193.446 38.8398C193.857 38.6843 194.323 38.6066 194.842 38.6066Z" fill="#101828" fill-opacity="0.6"/>
<path d="M183.638 46.1866C182.716 46.1866 181.903 46.0409 181.197 45.7493C180.501 45.4578 179.957 45.0351 179.565 44.4811C179.173 43.9175 178.977 43.2275 178.977 42.4112C178.977 41.5949 179.173 40.9049 179.565 40.3412C179.957 39.7679 180.501 39.3354 181.197 39.0439C181.903 38.7523 182.716 38.6066 183.638 38.6066C184.559 38.6066 185.363 38.7523 186.049 39.0439C186.745 39.3354 187.289 39.7679 187.681 40.3412C188.073 40.9049 188.269 41.5949 188.269 42.4112C188.269 43.2275 188.073 43.9175 187.681 44.4811C187.289 45.0351 186.745 45.4578 186.049 45.7493C185.363 46.0409 184.559 46.1866 183.638 46.1866ZM183.638 44.7289C184.148 44.7289 184.603 44.6415 185.005 44.4665C185.417 44.2819 185.74 44.0195 185.975 43.6794C186.211 43.3295 186.328 42.9068 186.328 42.4112C186.328 41.9156 186.211 41.4928 185.975 41.143C185.74 40.7834 185.422 40.5113 185.02 40.3267C184.618 40.142 184.157 40.0497 183.638 40.0497C183.128 40.0497 182.667 40.142 182.256 40.3267C181.844 40.5113 181.516 40.7786 181.271 41.1284C181.036 41.4782 180.918 41.9058 180.918 42.4112C180.918 42.9068 181.036 43.3295 181.271 43.6794C181.506 44.0195 181.829 44.2819 182.241 44.4665C182.653 44.6415 183.118 44.7289 183.638 44.7289Z" fill="#101828" fill-opacity="0.6"/>
<path d="M177.734 35.5891V37.2509H175.514V35.5891H177.734ZM175.661 38.7669H177.572V46.0117H175.661V38.7669Z" fill="#101828" fill-opacity="0.6"/>
<path d="M167.097 43.6065H168.862C168.97 43.9369 169.19 44.209 169.523 44.4228C169.866 44.6269 170.312 44.7289 170.861 44.7289C171.234 44.7289 171.523 44.6949 171.729 44.6269C171.934 44.5589 172.077 44.4617 172.155 44.3354C172.233 44.1993 172.273 44.0487 172.273 43.8835C172.273 43.6794 172.209 43.5239 172.081 43.417C171.954 43.3004 171.758 43.2081 171.493 43.14C171.229 43.072 170.891 43.0088 170.479 42.9505C170.067 42.8825 169.67 42.7999 169.288 42.7027C168.906 42.6055 168.568 42.4792 168.274 42.3237C167.98 42.1585 167.744 41.9544 167.568 41.7115C167.401 41.4588 167.318 41.1527 167.318 40.7931C167.318 40.4433 167.401 40.1323 167.568 39.8602C167.744 39.5881 167.984 39.3597 168.288 39.1751C168.602 38.9904 168.965 38.8495 169.376 38.7523C169.798 38.6552 170.249 38.6066 170.729 38.6066C171.454 38.6066 172.057 38.7135 172.537 38.9273C173.017 39.1313 173.375 39.4229 173.61 39.8019C173.856 40.1712 173.978 40.5988 173.978 41.0847H172.287C172.209 40.7251 172.052 40.4676 171.817 40.3121C171.582 40.1469 171.219 40.0643 170.729 40.0643C170.249 40.0643 169.886 40.1372 169.641 40.2829C169.396 40.4287 169.273 40.6279 169.273 40.8806C169.273 41.0847 169.347 41.245 169.494 41.3616C169.651 41.4685 169.876 41.556 170.17 41.624C170.474 41.692 170.851 41.7649 171.302 41.8427C171.684 41.9204 172.047 42.0079 172.39 42.1051C172.743 42.2022 173.057 42.3286 173.331 42.4841C173.606 42.6298 173.821 42.8291 173.978 43.0817C174.145 43.3247 174.228 43.6357 174.228 44.0147C174.228 44.4811 174.091 44.8747 173.816 45.1954C173.552 45.5161 173.169 45.7639 172.67 45.9388C172.17 46.104 171.572 46.1866 170.876 46.1866C170.258 46.1866 169.724 46.1235 169.273 45.9971C168.832 45.8611 168.465 45.691 168.171 45.4869C167.877 45.2731 167.646 45.0496 167.48 44.8164C167.323 44.5734 167.215 44.3451 167.156 44.1313C167.097 43.9175 167.078 43.7426 167.097 43.6065Z" fill="#101828" fill-opacity="0.6"/>
<path d="M158.946 43.6065H160.71C160.818 43.9369 161.038 44.209 161.372 44.4228C161.715 44.6269 162.161 44.7289 162.71 44.7289C163.082 44.7289 163.371 44.6949 163.577 44.6269C163.783 44.5589 163.925 44.4617 164.003 44.3354C164.082 44.1993 164.121 44.0487 164.121 43.8835C164.121 43.6794 164.057 43.5239 163.93 43.417C163.802 43.3004 163.606 43.2081 163.342 43.14C163.077 43.072 162.739 43.0088 162.327 42.9505C161.916 42.8825 161.519 42.7999 161.136 42.7027C160.754 42.6055 160.416 42.4792 160.122 42.3237C159.828 42.1585 159.593 41.9544 159.416 41.7115C159.25 41.4588 159.166 41.1527 159.166 40.7931C159.166 40.4433 159.25 40.1323 159.416 39.8602C159.593 39.5881 159.833 39.3597 160.137 39.1751C160.45 38.9904 160.813 38.8495 161.225 38.7523C161.646 38.6552 162.097 38.6066 162.577 38.6066C163.303 38.6066 163.905 38.7135 164.386 38.9273C164.866 39.1313 165.224 39.4229 165.459 39.8019C165.704 40.1712 165.826 40.5988 165.826 41.0847H164.136C164.057 40.7251 163.9 40.4676 163.665 40.3121C163.43 40.1469 163.067 40.0643 162.577 40.0643C162.097 40.0643 161.734 40.1372 161.489 40.2829C161.244 40.4287 161.122 40.6279 161.122 40.8806C161.122 41.0847 161.195 41.245 161.342 41.3616C161.499 41.4685 161.724 41.556 162.019 41.624C162.322 41.692 162.7 41.7649 163.151 41.8427C163.533 41.9204 163.895 42.0079 164.239 42.1051C164.591 42.2022 164.905 42.3286 165.179 42.4841C165.454 42.6298 165.67 42.8291 165.826 43.0817C165.993 43.3247 166.076 43.6357 166.076 44.0147C166.076 44.4811 165.939 44.8747 165.665 45.1954C165.4 45.5161 165.018 45.7639 164.518 45.9388C164.018 46.104 163.42 46.1866 162.724 46.1866C162.107 46.1866 161.573 46.1235 161.122 45.9971C160.681 45.8611 160.313 45.691 160.019 45.4869C159.725 45.2731 159.495 45.0496 159.328 44.8164C159.171 44.5734 159.063 44.3451 159.005 44.1313C158.946 43.9175 158.926 43.7426 158.946 43.6065Z" fill="#101828" fill-opacity="0.6"/>
<path d="M156.083 43.6065H157.935C157.857 44.1021 157.646 44.5443 157.303 44.933C156.97 45.3217 156.514 45.6279 155.936 45.8514C155.357 46.0749 154.652 46.1866 153.819 46.1866C152.887 46.1866 152.064 46.0409 151.349 45.7493C150.633 45.4481 150.074 45.0156 149.673 44.452C149.271 43.8883 149.07 43.2081 149.07 42.4112C149.07 41.6143 149.266 40.934 149.658 40.3704C150.05 39.797 150.594 39.3597 151.29 39.0585C151.996 38.7572 152.819 38.6066 153.76 38.6066C154.72 38.6066 155.519 38.7572 156.156 39.0585C156.793 39.3597 157.264 39.8165 157.568 40.4287C157.881 41.0312 158.014 41.8038 157.965 42.7465H150.996C151.045 43.1157 151.182 43.451 151.407 43.7523C151.643 44.0535 151.956 44.2916 152.348 44.4665C152.75 44.6415 153.226 44.7289 153.775 44.7289C154.382 44.7289 154.887 44.6269 155.289 44.4228C155.7 44.209 155.965 43.9369 156.083 43.6065ZM153.672 40.0497C152.966 40.0497 152.393 40.2052 151.951 40.5162C151.51 40.8174 151.226 41.1916 151.099 41.6386H156.068C156.019 41.1527 155.784 40.7688 155.362 40.487C154.951 40.1955 154.387 40.0497 153.672 40.0497Z" fill="#101828" fill-opacity="0.6"/>
<path d="M143.669 38.7669H145.58V46.0117H143.669V38.7669ZM148.388 40.3267C147.839 40.3267 147.364 40.4336 146.962 40.6474C146.56 40.8514 146.237 41.1041 145.992 41.4054C145.747 41.7066 145.575 41.9982 145.477 42.28L145.462 41.4782C145.472 41.3616 145.511 41.1916 145.58 40.9681C145.649 40.7348 145.752 40.487 145.889 40.2246C146.026 39.9525 146.207 39.695 146.433 39.452C146.658 39.1994 146.933 38.9953 147.256 38.8398C147.58 38.6843 147.957 38.6066 148.388 38.6066V40.3267Z" fill="#101828" fill-opacity="0.6"/>
<path d="M138.499 46.1866C137.852 46.1866 137.298 46.0749 136.838 45.8514C136.387 45.6181 136.019 45.3169 135.735 44.9476C135.451 44.5686 135.24 44.1556 135.103 43.7085C134.966 43.2615 134.897 42.8242 134.897 42.3966C134.897 41.8621 134.961 41.3665 135.088 40.9097C135.225 40.453 135.436 40.0546 135.72 39.7144C136.004 39.3646 136.372 39.0925 136.823 38.8981C137.284 38.7037 137.842 38.6066 138.499 38.6066C139.234 38.6066 139.896 38.7669 140.484 39.0876C141.072 39.4083 141.537 39.8553 141.88 40.4287C142.233 40.9923 142.41 41.6483 142.41 42.3966C142.41 43.1643 142.233 43.8349 141.88 44.4082C141.528 44.9719 141.057 45.4092 140.469 45.7202C139.881 46.0312 139.224 46.1866 138.499 46.1866ZM137.881 44.7144C138.401 44.7144 138.852 44.6172 139.234 44.4228C139.626 44.2285 139.925 43.9612 140.131 43.6211C140.347 43.2712 140.454 42.8631 140.454 42.3966C140.454 41.6969 140.229 41.1333 139.778 40.7057C139.337 40.2781 138.705 40.0643 137.881 40.0643C137.362 40.0643 136.887 40.1566 136.455 40.3412C136.034 40.5259 135.701 40.7931 135.456 41.143C135.211 41.4831 135.088 41.901 135.088 42.3966C135.088 42.8631 135.201 43.2712 135.426 43.6211C135.652 43.9612 135.975 44.2285 136.397 44.4228C136.818 44.6172 137.313 44.7144 137.881 44.7144ZM133.177 38.7669H135L135.088 40.6911V48.9271H133.177V38.7669Z" fill="#101828" fill-opacity="0.6"/>
<path d="M116.755 38.7669H118.666V46.0117H116.755V38.7669ZM122.063 38.6066C122.513 38.6066 122.93 38.6649 123.312 38.7815C123.695 38.8981 124.028 39.0779 124.312 39.3208C124.596 39.5638 124.817 39.8748 124.974 40.2538C125.13 40.6231 125.209 41.0652 125.209 41.5803V46.0117H123.298V41.9156C123.298 41.3033 123.146 40.8563 122.842 40.5745C122.548 40.2829 122.063 40.1372 121.386 40.1372C120.877 40.1372 120.416 40.2343 120.004 40.4287C119.593 40.6231 119.259 40.8709 119.005 41.1721C118.75 41.4637 118.603 41.7698 118.564 42.0905L118.549 41.3471C118.598 41.0069 118.711 40.6765 118.887 40.3558C119.063 40.0351 119.299 39.7436 119.593 39.4812C119.897 39.2091 120.254 38.9953 120.666 38.8398C121.078 38.6843 121.543 38.6066 122.063 38.6066ZM128.429 38.6066C128.88 38.6066 129.296 38.6649 129.678 38.7815C130.061 38.8981 130.394 39.0779 130.678 39.3208C130.962 39.5638 131.183 39.8748 131.34 40.2538C131.506 40.6231 131.59 41.0652 131.59 41.5803V46.0117H129.678V41.9156C129.678 41.3033 129.526 40.8563 129.223 40.5745C128.919 40.2829 128.429 40.1372 127.752 40.1372C127.243 40.1372 126.782 40.2343 126.37 40.4287C125.959 40.6231 125.625 40.8709 125.371 41.1721C125.116 41.4637 124.974 41.7698 124.944 42.0905L124.915 41.3033C124.964 40.9826 125.081 40.6619 125.268 40.3412C125.454 40.0205 125.699 39.729 126.003 39.4666C126.307 39.2042 126.66 38.9953 127.061 38.8398C127.473 38.6843 127.929 38.6066 128.429 38.6066Z" fill="#101828" fill-opacity="0.6"/>
<path d="M110.858 46.1866C109.937 46.1866 109.123 46.0409 108.418 45.7493C107.722 45.4578 107.178 45.0351 106.786 44.4811C106.394 43.9175 106.198 43.2275 106.198 42.4112C106.198 41.5949 106.394 40.9049 106.786 40.3412C107.178 39.7679 107.722 39.3354 108.418 39.0439C109.123 38.7523 109.937 38.6066 110.858 38.6066C111.779 38.6066 112.583 38.7523 113.269 39.0439C113.965 39.3354 114.509 39.7679 114.901 40.3412C115.293 40.9049 115.489 41.5949 115.489 42.4112C115.489 43.2275 115.293 43.9175 114.901 44.4811C114.509 45.0351 113.965 45.4578 113.269 45.7493C112.583 46.0409 111.779 46.1866 110.858 46.1866ZM110.858 44.7289C111.368 44.7289 111.824 44.6415 112.225 44.4665C112.637 44.2819 112.961 44.0195 113.196 43.6794C113.431 43.3295 113.549 42.9068 113.549 42.4112C113.549 41.9156 113.431 41.4928 113.196 41.143C112.961 40.7834 112.642 40.5113 112.24 40.3267C111.838 40.142 111.378 40.0497 110.858 40.0497C110.348 40.0497 109.888 40.142 109.476 40.3267C109.064 40.5113 108.736 40.7786 108.491 41.1284C108.256 41.4782 108.138 41.9058 108.138 42.4112C108.138 42.9068 108.256 43.3295 108.491 43.6794C108.726 44.0195 109.05 44.2819 109.461 44.4665C109.873 44.6415 110.339 44.7289 110.858 44.7289Z" fill="#101828" fill-opacity="0.6"/>
<path d="M105.039 42.6152C104.951 43.3732 104.682 44.0195 104.231 44.554C103.78 45.0885 103.167 45.4966 102.393 45.7784C101.619 46.0603 100.697 46.2012 99.6291 46.2012C98.7371 46.2012 97.9187 46.0991 97.1738 45.8951C96.4387 45.691 95.8016 45.3849 95.2625 44.9767C94.7332 44.5685 94.3216 44.0632 94.0275 43.4607C93.7335 42.8484 93.5865 42.1342 93.5865 41.3179C93.5865 40.5015 93.7335 39.7873 94.0275 39.175C94.3216 38.5628 94.7332 38.0526 95.2625 37.6444C95.8016 37.2266 96.4387 36.9156 97.1738 36.7115C97.9187 36.4977 98.7371 36.3908 99.6291 36.3908C100.697 36.3908 101.619 36.5366 102.393 36.8281C103.177 37.1197 103.795 37.5375 104.246 38.0817C104.696 38.6162 104.961 39.2673 105.039 40.0351H103.099C102.971 39.6269 102.756 39.2771 102.452 38.9855C102.158 38.6843 101.776 38.4559 101.305 38.3004C100.835 38.1449 100.276 38.0672 99.6291 38.0672C98.8254 38.0672 98.1196 38.1935 97.512 38.4462C96.9043 38.6891 96.4338 39.0536 96.1005 39.5395C95.7673 40.0156 95.6007 40.6084 95.6007 41.3179C95.6007 42.0176 95.7673 42.6055 96.1005 43.0817C96.4338 43.5579 96.9043 43.9223 97.512 44.175C98.1196 44.4179 98.8254 44.5394 99.6291 44.5394C100.276 44.5394 100.83 44.4616 101.29 44.3062C101.761 44.1507 102.143 43.9272 102.437 43.6356C102.741 43.3441 102.962 43.0039 103.099 42.6152H105.039Z" fill="#101828" fill-opacity="0.6"/>
<path d="M87.133 43.6065H88.9855C88.9071 44.1021 88.6964 44.5443 88.3533 44.933C88.0201 45.3217 87.5643 45.6279 86.986 45.8514C86.4077 46.0749 85.702 46.1866 84.8689 46.1866C83.9378 46.1866 83.1144 46.0409 82.3989 45.7493C81.6834 45.4481 81.1248 45.0156 80.7229 44.452C80.321 43.8883 80.1201 43.2081 80.1201 42.4112C80.1201 41.6143 80.3161 40.934 80.7082 40.3704C81.1003 39.797 81.6442 39.3597 82.3401 39.0585C83.0458 38.7572 83.8692 38.6066 84.8101 38.6066C85.7706 38.6066 86.5695 38.7572 87.2066 39.0585C87.8436 39.3597 88.3141 39.8165 88.618 40.4287C88.9316 41.0312 89.0639 41.8038 89.0149 42.7465H82.0461C82.0951 43.1157 82.2323 43.451 82.4578 43.7523C82.693 44.0535 83.0066 44.2916 83.3987 44.4665C83.8006 44.6415 84.2759 44.7289 84.8248 44.7289C85.4325 44.7289 85.9373 44.6269 86.3391 44.4228C86.7508 44.209 87.0154 43.9369 87.133 43.6065ZM84.7219 40.0497C84.0162 40.0497 83.4428 40.2052 83.0017 40.5162C82.5607 40.8174 82.2764 41.1916 82.149 41.6386H87.1183C87.0693 41.1527 86.8341 40.7688 86.4126 40.487C86.001 40.1955 85.4374 40.0497 84.7219 40.0497Z" fill="#101828" fill-opacity="0.6"/>
<path d="M74.5317 44.9039C73.7378 44.9039 73.037 44.7872 72.4293 44.554C71.8314 44.3111 71.3658 43.9564 71.0326 43.4899C70.6993 43.0234 70.5327 42.4598 70.5327 41.7989C70.5327 41.1478 70.6944 40.5842 71.0179 40.108C71.3413 39.6318 71.802 39.2625 72.3999 39.0001C73.0075 38.7378 73.7182 38.6066 74.5317 38.6066C74.7571 38.6066 74.9727 38.6211 75.1786 38.6503C75.3942 38.6795 75.6049 38.7183 75.8108 38.7669L79.501 38.7815V40.21C79.0011 40.2198 78.4915 40.1615 77.972 40.0351C77.4623 39.8991 77.0114 39.7533 76.6194 39.5978L76.5753 39.4958C76.9085 39.6513 77.2222 39.8456 77.5162 40.0789C77.8103 40.3024 78.0455 40.5648 78.2219 40.866C78.4081 41.1576 78.5013 41.4977 78.5013 41.8864C78.5013 42.5181 78.3395 43.0623 78.0161 43.519C77.6926 43.9661 77.232 44.3111 76.6341 44.554C76.046 44.7872 75.3452 44.9039 74.5317 44.9039ZM76.9869 49V48.6502C76.9869 48.2031 76.8399 47.8922 76.5459 47.7172C76.2616 47.5423 75.8696 47.4548 75.3697 47.4548H73.0909C72.6498 47.4548 72.2773 47.4208 71.9735 47.3528C71.6795 47.2848 71.4442 47.1876 71.2678 47.0613C71.0914 46.9349 70.9639 46.7843 70.8855 46.6094C70.8071 46.4442 70.7679 46.2644 70.7679 46.07C70.7679 45.6813 70.8953 45.3898 71.1502 45.1954C71.405 44.9913 71.7481 44.8553 72.1793 44.7872C72.6106 44.7192 73.086 44.7046 73.6054 44.7435L74.5317 44.9039C73.9142 44.9233 73.4535 44.9767 73.1497 45.0642C72.8556 45.142 72.7086 45.3023 72.7086 45.5453C72.7086 45.691 72.7674 45.8076 72.885 45.8951C73.0026 45.9728 73.1693 46.0117 73.3849 46.0117H75.7814C76.4381 46.0117 76.9967 46.0797 77.4574 46.2158C77.9279 46.3616 78.2856 46.5997 78.5307 46.9301C78.7757 47.2702 78.8982 47.7318 78.8982 48.3149V49H76.9869ZM74.5317 43.5336C74.9531 43.5336 75.3207 43.4656 75.6343 43.3295C75.9578 43.1935 76.2077 42.9991 76.3841 42.7465C76.5606 42.4841 76.6488 42.1731 76.6488 41.8135C76.6488 41.4442 76.5606 41.1284 76.3841 40.866C76.2077 40.6036 75.9627 40.4044 75.649 40.2684C75.3354 40.1226 74.9629 40.0497 74.5317 40.0497C74.1102 40.0497 73.7378 40.1226 73.4143 40.2684C73.0909 40.4044 72.8409 40.6036 72.6645 40.866C72.4881 41.1284 72.3999 41.4442 72.3999 41.8135C72.3999 42.1731 72.4881 42.4841 72.6645 42.7465C72.8409 42.9991 73.086 43.1935 73.3996 43.3295C73.7231 43.4656 74.1004 43.5336 74.5317 43.5336Z" fill="#101828" fill-opacity="0.6"/>
<path d="M63.9659 46.1721C63.2406 46.1721 62.579 46.0166 61.9811 45.7056C61.393 45.3849 60.9225 44.9427 60.5697 44.3791C60.2266 43.8057 60.0551 43.1449 60.0551 42.3966C60.0551 41.6289 60.2315 40.9632 60.5844 40.3995C60.9372 39.8359 61.4126 39.3986 62.0105 39.0876C62.6182 38.7669 63.3043 38.6066 64.0688 38.6066C64.9117 38.6066 65.588 38.7766 66.0977 39.1168C66.6172 39.4472 66.9945 39.8991 67.2298 40.4724C67.465 41.0458 67.5826 41.6872 67.5826 42.3966C67.5826 42.8242 67.514 43.2615 67.3768 43.7085C67.2395 44.1459 67.0288 44.554 66.7446 44.933C66.4603 45.3023 66.0879 45.6036 65.6272 45.8368C65.1665 46.0603 64.6128 46.1721 63.9659 46.1721ZM64.5834 44.7144C65.1616 44.7144 65.6615 44.6172 66.083 44.4228C66.5044 44.2285 66.8279 43.9564 67.0533 43.6065C67.2788 43.2567 67.3915 42.8534 67.3915 42.3966C67.3915 41.901 67.2739 41.4831 67.0386 41.143C66.8132 40.7931 66.4897 40.5307 66.0683 40.3558C65.6566 40.1712 65.1616 40.0789 64.5834 40.0789C63.7698 40.0789 63.1376 40.2926 62.6868 40.7202C62.2359 41.1381 62.0105 41.6969 62.0105 42.3966C62.0105 42.8631 62.1183 43.2712 62.3339 43.6211C62.5496 43.9612 62.8485 44.2285 63.2308 44.4228C63.6228 44.6172 64.0737 44.7144 64.5834 44.7144ZM67.3915 38.7669H69.3028V46.0117H67.5238C67.5238 46.0117 67.5091 45.9194 67.4797 45.7348C67.4601 45.5404 67.4405 45.2974 67.4209 45.0059C67.4013 44.7144 67.3915 44.4277 67.3915 44.1459V38.7669Z" fill="#101828" fill-opacity="0.6"/>
<path d="M43.9863 38.7669H45.8976V46.0117H43.9863V38.7669ZM49.2938 38.6066C49.7447 38.6066 50.1612 38.6649 50.5435 38.7815C50.9257 38.8981 51.259 39.0779 51.5432 39.3208C51.8275 39.5638 52.048 39.8748 52.2048 40.2538C52.3617 40.6231 52.4401 41.0652 52.4401 41.5803V46.0117H50.5288V41.9156C50.5288 41.3033 50.3769 40.8563 50.073 40.5745C49.779 40.2829 49.2938 40.1372 48.6175 40.1372C48.1078 40.1372 47.6472 40.2343 47.2355 40.4287C46.8238 40.6231 46.4906 40.8709 46.2357 41.1721C45.9809 41.4637 45.8339 41.7698 45.7947 42.0905L45.78 41.3471C45.829 41.0069 45.9417 40.6765 46.1181 40.3558C46.2946 40.0351 46.5298 39.7436 46.8238 39.4812C47.1277 39.2091 47.4854 38.9953 47.8971 38.8398C48.3088 38.6843 48.7743 38.6066 49.2938 38.6066ZM55.6598 38.6066C56.1107 38.6066 56.5273 38.6649 56.9095 38.7815C57.2918 38.8981 57.625 39.0779 57.9093 39.3208C58.1935 39.5638 58.414 39.8748 58.5709 40.2538C58.7375 40.6231 58.8208 41.0652 58.8208 41.5803V46.0117H56.9095V41.9156C56.9095 41.3033 56.7576 40.8563 56.4538 40.5745C56.1499 40.2829 55.6598 40.1372 54.9835 40.1372C54.4739 40.1372 54.0132 40.2343 53.6015 40.4287C53.1899 40.6231 52.8566 40.8709 52.6018 41.1721C52.3469 41.4637 52.2048 41.7698 52.1754 42.0905L52.146 41.3033C52.195 40.9826 52.3126 40.6619 52.4989 40.3412C52.6851 40.0205 52.9301 39.729 53.234 39.4666C53.5378 39.2042 53.8907 38.9953 54.2925 38.8398C54.7042 38.6843 55.16 38.6066 55.6598 38.6066Z" fill="#101828" fill-opacity="0.6"/>
<path d="M39.8959 36.5803H41.8513V46.0117H39.8959V36.5803Z" fill="#101828" fill-opacity="0.6"/>
</g>
<defs>
<clipPath id="clip0_1_147">
<rect width="400" height="49" fill="white"/>
</clipPath>
</defs>
</svg>
