<svg width="374" height="46" viewBox="0 0 374 46" fill="none" xmlns="http://www.w3.org/2000/svg">
<path d="M359.088 44.224V31.424C359.088 29.5467 358.725 27.968 358 26.688C357.274 25.3653 355.994 24.384 354.16 23.744C352.368 23.104 349.829 22.784 346.544 22.784C344.538 22.784 342.597 23.0187 340.72 23.488C338.885 23.9147 337.242 24.4693 335.792 25.152C334.384 25.792 333.295 26.4533 332.527 27.136L332.464 24C332.634 23.1893 333.189 22.1227 334.128 20.8C335.109 19.4773 336.496 18.1333 338.288 16.768C340.08 15.4027 342.32 14.2507 345.008 13.312C347.696 12.3307 350.874 11.84 354.544 11.84C356.933 11.84 359.237 12.096 361.456 12.608C363.674 13.0773 365.637 13.8453 367.344 14.912C369.093 15.9787 370.48 17.408 371.504 19.2C372.528 20.9493 373.04 23.1253 373.04 25.728V44.224H359.088ZM319.216 44.224V0H333.168V44.224H319.216Z" fill="#101828"/>
<path d="M268.391 33.088H281.255C281.81 34.2826 282.898 35.136 284.519 35.648C286.183 36.16 288.53 36.416 291.559 36.416C293.82 36.416 295.506 36.288 296.615 36.032C297.724 35.776 298.45 35.4346 298.791 35.008C299.175 34.5386 299.367 34.0266 299.367 33.472C299.367 32.7466 298.983 32.2346 298.215 31.936C297.49 31.5946 296.252 31.36 294.503 31.232C292.796 31.104 290.45 31.0186 287.463 30.976C284.604 30.9333 282.023 30.7626 279.719 30.464C277.458 30.1226 275.516 29.6533 273.895 29.056C272.274 28.416 271.015 27.5413 270.119 26.432C269.266 25.3226 268.839 23.936 268.839 22.272C268.839 20.352 269.436 18.7093 270.631 17.344C271.868 15.9786 273.511 14.912 275.559 14.144C277.65 13.3333 280.06 12.7573 282.791 12.416C285.522 12.032 288.402 11.84 291.431 11.84C296.338 11.84 300.37 12.3733 303.527 13.44C306.684 14.5066 309.01 15.936 310.503 17.728C312.039 19.52 312.786 21.5466 312.743 23.808H300.263C299.794 22.6133 298.94 21.7813 297.703 21.312C296.466 20.8 294.375 20.544 291.431 20.544C288.615 20.544 286.567 20.8 285.287 21.312C284.007 21.7813 283.367 22.528 283.367 23.552C283.367 24.2346 283.687 24.768 284.327 25.152C285.01 25.4933 286.204 25.7493 287.911 25.92C289.66 26.048 292.178 26.1546 295.463 26.24C297.767 26.2826 300.007 26.432 302.183 26.688C304.402 26.9013 306.386 27.3066 308.135 27.904C309.884 28.4586 311.271 29.312 312.295 30.464C313.362 31.5733 313.895 33.1093 313.895 35.072C313.895 37.4186 312.978 39.3386 311.143 40.832C309.308 42.3253 306.727 43.4133 303.399 44.096C300.071 44.7786 296.124 45.12 291.559 45.12C287.548 45.12 284.156 44.8426 281.383 44.288C278.652 43.7333 276.412 43.008 274.663 42.112C272.914 41.1733 271.548 40.1706 270.567 39.104C269.628 38.0373 269.01 36.9706 268.711 35.904C268.412 34.8373 268.306 33.8986 268.391 33.088Z" fill="#101828"/>
<path d="M236.705 45.12C230.475 45.12 225.249 44.5653 221.025 43.456C216.801 42.304 213.622 40.512 211.489 38.08C209.355 35.648 208.289 32.4693 208.289 28.544C208.289 24.6613 209.355 21.504 211.489 19.072C213.622 16.5973 216.801 14.784 221.025 13.632C225.249 12.4373 230.475 11.84 236.705 11.84C242.891 11.84 248.054 12.4373 252.193 13.632C256.374 14.784 259.51 16.5973 261.601 19.072C263.734 21.504 264.801 24.6613 264.801 28.544C264.801 32.4693 263.734 35.648 261.601 38.08C259.51 40.512 256.374 42.304 252.193 43.456C248.054 44.5653 242.891 45.12 236.705 45.12ZM236.705 36.416C239.649 36.416 242.145 36.1386 244.193 35.584C246.283 34.9866 247.862 34.112 248.929 32.96C250.038 31.7653 250.593 30.2933 250.593 28.544C250.593 26.8373 250.059 25.3866 248.993 24.192C247.926 22.9973 246.347 22.1013 244.257 21.504C242.209 20.864 239.691 20.544 236.705 20.544C233.718 20.544 231.158 20.864 229.025 21.504C226.934 22.1013 225.334 22.9973 224.225 24.192C223.115 25.344 222.561 26.7946 222.561 28.544C222.561 30.2933 223.094 31.7653 224.161 32.96C225.27 34.112 226.87 34.9866 228.961 35.584C231.094 36.1386 233.675 36.416 236.705 36.416Z" fill="#101828"/>
<path d="M176.282 45.12C170.053 45.12 164.826 44.5653 160.602 43.456C156.378 42.304 153.199 40.512 151.066 38.08C148.933 35.648 147.866 32.4693 147.866 28.544C147.866 24.6613 148.933 21.504 151.066 19.072C153.199 16.5973 156.378 14.784 160.602 13.632C164.826 12.4373 170.053 11.84 176.282 11.84C182.469 11.84 187.631 12.4373 191.77 13.632C195.951 14.784 199.087 16.5973 201.178 19.072C203.311 21.504 204.378 24.6613 204.378 28.544C204.378 32.4693 203.311 35.648 201.178 38.08C199.087 40.512 195.951 42.304 191.77 43.456C187.631 44.5653 182.469 45.12 176.282 45.12ZM176.282 36.416C179.226 36.416 181.722 36.1386 183.77 35.584C185.861 34.9866 187.439 34.112 188.506 32.96C189.615 31.7653 190.17 30.2933 190.17 28.544C190.17 26.8373 189.637 25.3866 188.57 24.192C187.503 22.9973 185.925 22.1013 183.834 21.504C181.786 20.864 179.269 20.544 176.282 20.544C173.295 20.544 170.735 20.864 168.602 21.504C166.511 22.1013 164.911 22.9973 163.802 24.192C162.693 25.344 162.138 26.7946 162.138 28.544C162.138 30.2933 162.671 31.7653 163.738 32.96C164.847 34.112 166.447 34.9866 168.538 35.584C170.671 36.1386 173.253 36.416 176.282 36.416Z" fill="#101828"/>
<path d="M50.213 12.8H64.165V44.224H50.213V12.8ZM85.541 11.84C87.973 11.84 90.2769 12.1173 92.4529 12.672C94.6716 13.184 96.6343 14.0586 98.341 15.296C100.09 16.5333 101.477 18.2186 102.501 20.352C103.525 22.4426 104.037 25.0666 104.037 28.224V44.224H90.085V30.016C90.085 26.944 89.2956 24.7466 87.717 23.424C86.1383 22.0586 83.301 21.376 79.205 21.376C76.9436 21.376 74.7676 21.6746 72.677 22.272C70.5863 22.8693 68.7516 23.5733 67.173 24.384C65.5943 25.1946 64.3996 26.0266 63.589 26.88L63.461 24.256C63.6316 23.36 64.1863 22.208 65.125 20.8C66.1063 19.392 67.493 18.0266 69.285 16.704C71.077 15.3386 73.317 14.1866 76.005 13.248C78.693 12.3093 81.8716 11.84 85.541 11.84ZM124.709 11.84C127.098 11.84 129.402 12.1173 131.621 12.672C133.84 13.184 135.802 14.0586 137.509 15.296C139.258 16.5333 140.645 18.2186 141.669 20.352C142.693 22.4426 143.205 25.0666 143.205 28.224V44.224H129.253V30.016C129.253 26.944 128.442 24.7466 126.821 23.424C125.242 22.0586 122.426 21.376 118.373 21.376C116.069 21.376 113.872 21.6746 111.781 22.272C109.733 22.8693 107.898 23.5733 106.277 24.384C104.698 25.1946 103.504 26.0266 102.693 26.88L102.565 23.68C102.736 22.912 103.354 21.888 104.421 20.608C105.488 19.2853 106.96 17.9626 108.837 16.64C110.714 15.3173 112.976 14.1866 115.621 13.248C118.309 12.3093 121.338 11.84 124.709 11.84Z" fill="#101828"/>
<path d="M0.0284445 33.088H12.8924C13.4471 34.2826 14.5351 35.136 16.1564 35.648C17.8204 36.16 20.1671 36.416 23.1964 36.416C25.4578 36.416 27.1431 36.288 28.2524 36.032C29.3618 35.776 30.0871 35.4346 30.4284 35.008C30.8124 34.5386 31.0044 34.0266 31.0044 33.472C31.0044 32.7466 30.6204 32.2346 29.8524 31.936C29.1271 31.5946 27.8898 31.36 26.1404 31.232C24.4338 31.104 22.0871 31.0186 19.1004 30.976C16.2418 30.9333 13.6604 30.7626 11.3564 30.464C9.09511 30.1226 7.15378 29.6533 5.53244 29.056C3.91111 28.416 2.65244 27.5413 1.75644 26.432C0.903111 25.3226 0.476444 23.936 0.476444 22.272C0.476444 20.352 1.07378 18.7093 2.26844 17.344C3.50578 15.9786 5.14844 14.912 7.19644 14.144C9.28711 13.3333 11.6978 12.7573 14.4284 12.416C17.1591 12.032 20.0391 11.84 23.0684 11.84C27.9751 11.84 32.0071 12.3733 35.1644 13.44C38.3218 14.5066 40.6471 15.936 42.1404 17.728C43.6764 19.52 44.4231 21.5466 44.3804 23.808H31.9004C31.4311 22.6133 30.5778 21.7813 29.3404 21.312C28.1031 20.8 26.0124 20.544 23.0684 20.544C20.2524 20.544 18.2044 20.8 16.9244 21.312C15.6444 21.7813 15.0044 22.528 15.0044 23.552C15.0044 24.2346 15.3244 24.768 15.9644 25.152C16.6471 25.4933 17.8418 25.7493 19.5484 25.92C21.2978 26.048 23.8151 26.1546 27.1004 26.24C29.4044 26.2826 31.6444 26.432 33.8204 26.688C36.0391 26.9013 38.0231 27.3066 39.7724 27.904C41.5218 28.4586 42.9084 29.312 43.9324 30.464C44.9991 31.5733 45.5324 33.1093 45.5324 35.072C45.5324 37.4186 44.6151 39.3386 42.7804 40.832C40.9458 42.3253 38.3644 43.4133 35.0364 44.096C31.7084 44.7786 27.7618 45.12 23.1964 45.12C19.1858 45.12 15.7938 44.8426 13.0204 44.288C10.2898 43.7333 8.04978 43.008 6.30045 42.112C4.55111 41.1733 3.18578 40.1706 2.20444 39.104C1.26578 38.0373 0.647111 36.9706 0.348444 35.904C0.0497777 34.8373 -0.0568889 33.8986 0.0284445 33.088Z" fill="#101828"/>
</svg>
