<svg width="1231" height="217" viewBox="0 0 1231 217" fill="none" xmlns="http://www.w3.org/2000/svg">
<g opacity="0.2">
<path d="M618.398 198.212C505.589 198.212 410.937 195.222 334.443 189.241C257.95 183.03 200.386 173.369 161.753 160.257C123.12 147.145 103.803 130.008 103.803 108.845C103.803 87.912 123.12 70.8897 161.753 57.7779C200.386 44.4361 257.95 34.6598 334.443 28.4489C410.937 22.008 505.589 18.7876 618.398 18.7876C730.434 18.7876 823.926 22.008 898.874 28.4489C974.596 34.6598 1031.39 44.4361 1069.25 57.7779C1107.88 70.8897 1127.2 87.912 1127.2 108.845C1127.2 130.008 1107.88 147.145 1069.25 160.257C1031.39 173.369 974.596 183.03 898.874 189.241C823.926 195.222 730.434 198.212 618.398 198.212Z" fill="#364153" fill-opacity="0.1"/>
<path d="M618.601 203.849C497.87 203.849 396.572 200.67 314.707 194.314C232.842 187.713 171.236 177.445 129.89 163.509C88.5443 149.573 67.8713 131.359 67.8713 108.867C67.8713 86.6189 88.5443 68.5271 129.89 54.5916C171.236 40.4115 232.842 30.021 314.707 23.4199C396.572 16.5744 497.87 13.1516 618.601 13.1516C738.505 13.1516 838.562 16.5744 918.773 23.4199C999.812 30.021 1060.59 40.4115 1101.11 54.5916C1142.46 68.5271 1163.13 86.6189 1163.13 108.867C1163.13 131.359 1142.46 149.573 1101.11 163.509C1060.59 177.445 999.812 187.713 918.773 194.314C838.562 200.67 738.505 203.849 618.601 203.849Z" fill="#364153" fill-opacity="0.1"/>
<path d="M618.774 208.546C491.296 208.546 384.336 205.211 297.895 198.541C211.454 191.615 146.405 180.841 102.748 166.219C59.0911 151.597 37.2627 132.486 37.2627 108.885C37.2627 85.5412 59.0911 66.5582 102.748 51.9362C146.405 37.0576 211.454 26.1552 297.895 19.229C384.336 12.0462 491.296 8.45483 618.774 8.45483C745.38 8.45483 851.03 12.0462 935.724 19.229C1021.29 26.1552 1085.47 37.0576 1128.25 51.9362C1171.91 66.5582 1193.74 85.5412 1193.74 108.885C1193.74 132.486 1171.91 151.597 1128.25 166.219C1085.47 180.841 1021.29 191.615 935.724 198.541C851.03 205.211 745.38 208.546 618.774 208.546Z" fill="#364153" fill-opacity="0.1"/>
<path d="M618.985 217C483.292 217 369.439 213.384 277.428 206.15C185.417 198.639 116.176 186.954 69.7055 171.096C23.2351 155.239 0 134.512 0 108.917C0 83.6007 23.2351 63.0135 69.7055 47.1558C116.176 31.0199 185.417 19.1962 277.428 11.6846C369.439 3.89488 483.292 0 618.985 0C753.749 0 866.208 3.89488 956.36 11.6846C1047.44 19.1962 1115.75 31.0199 1161.29 47.1558C1207.77 63.0135 1231 83.6007 1231 108.917C1231 134.512 1207.77 155.239 1161.29 171.096C1115.75 186.954 1047.44 198.639 956.36 206.15C866.208 213.384 753.749 217 618.985 217Z" fill="#364153" fill-opacity="0.1"/>
<path d="M618.089 188.818C517.309 188.818 432.75 186.141 364.413 180.787C296.076 175.226 244.651 166.576 210.137 154.838C175.623 143.099 158.366 127.756 158.366 108.809C158.366 90.0681 175.623 74.8283 210.137 63.0894C244.651 51.1447 296.076 42.392 364.413 36.8316C432.75 31.0651 517.309 28.1819 618.089 28.1819C718.178 28.1819 801.701 31.0651 868.658 36.8316C936.305 42.392 987.04 51.1447 1020.86 63.0894C1055.38 74.8283 1072.63 90.0681 1072.63 108.809C1072.63 127.756 1055.38 143.099 1020.86 154.838C987.04 166.576 936.305 175.226 868.658 180.787C801.701 186.141 718.178 188.818 618.089 188.818Z" fill="#364153" fill-opacity="0.1"/>
<path d="M617.818 180C527.6 180 451.903 177.617 390.728 172.85C329.553 167.9 283.517 160.2 252.621 149.75C221.724 139.3 206.276 125.642 206.276 108.775C206.276 92.092 221.724 78.5253 252.621 68.0753C283.517 57.4419 329.553 49.6503 390.728 44.7003C451.903 39.5669 527.6 37.0002 617.818 37.0002C707.417 37.0002 782.187 39.5669 842.126 44.7003C902.683 49.6503 948.101 57.4419 978.38 68.0753C1009.28 78.5253 1024.72 92.092 1024.72 108.775C1024.72 125.642 1009.28 139.3 978.38 149.75C948.101 160.2 902.683 167.9 842.126 172.85C782.187 177.617 707.417 180 617.818 180Z" fill="#364153" fill-opacity="0.1"/>
<path d="M617.486 170C540.177 170 475.312 167.95 422.891 163.85C370.469 159.592 331.02 152.969 304.545 143.981C278.069 134.992 264.832 123.244 264.832 108.737C264.832 94.3866 278.069 82.7173 304.545 73.7289C331.02 64.5827 370.469 57.8808 422.891 53.6231C475.312 49.2077 540.177 47 617.486 47C694.265 47 758.336 49.2077 809.698 53.6231C861.59 57.8808 900.51 64.5827 926.456 73.7289C952.931 82.7173 966.169 94.3866 966.169 108.737C966.169 123.244 952.931 134.992 926.456 143.981C900.51 152.969 861.59 159.592 809.698 163.85C758.336 167.95 694.265 170 617.486 170Z" fill="#364153" fill-opacity="0.1"/>
<path d="M617.094 158C555.042 158 502.977 156.35 460.9 153.05C418.824 149.623 387.16 144.292 365.91 137.058C344.659 129.823 334.033 120.367 334.033 108.69C334.033 97.1402 344.659 87.7479 365.91 80.5132C387.16 73.1517 418.824 67.7575 460.9 64.3305C502.977 60.7767 555.042 58.9998 617.094 58.9998C678.721 58.9998 730.148 60.7767 771.374 64.3305C813.026 67.7575 844.265 73.1517 865.09 80.5132C886.341 87.7479 896.966 97.1402 896.966 108.69C896.966 120.367 886.341 129.823 865.09 137.058C844.265 144.292 813.026 149.623 771.374 153.05C730.148 156.35 678.721 158 617.094 158Z" fill="#364153" fill-opacity="0.1"/>
<path d="M616.709 146C569.62 146 530.11 144.75 498.18 142.25C466.249 139.654 442.221 135.615 426.094 130.135C409.968 124.654 401.905 117.49 401.905 108.644C401.905 99.8943 409.968 92.7789 426.094 87.2981C442.221 81.7212 466.249 77.6346 498.18 75.0385C530.11 72.3462 569.62 71 616.709 71C663.476 71 702.502 72.3462 733.788 75.0385C765.395 77.6346 789.102 81.7212 804.905 87.2981C821.032 92.7789 829.095 99.8943 829.095 108.644C829.095 117.49 821.032 124.654 804.905 130.135C789.102 135.615 765.395 139.654 733.788 142.25C702.502 144.75 663.476 146 616.709 146Z" fill="#364153" fill-opacity="0.1"/>
</g>
<path d="M606.443 107.791V94.9914C606.443 93.1141 606.081 91.5354 605.355 90.2554C604.63 88.9327 603.35 87.9514 601.515 87.3114C599.723 86.6714 597.185 86.3514 593.899 86.3514C591.894 86.3514 589.953 86.5861 588.075 87.0554C586.241 87.4821 584.598 88.0367 583.147 88.7194C581.739 89.3594 580.651 90.0207 579.883 90.7034L579.819 87.5674C579.99 86.7567 580.545 85.69 581.483 84.3674C582.465 83.0447 583.851 81.7007 585.643 80.3354C587.435 78.9701 589.675 77.8181 592.363 76.8794C595.051 75.8981 598.23 75.4074 601.899 75.4074C604.289 75.4074 606.593 75.6634 608.811 76.1754C611.03 76.6447 612.993 77.4127 614.699 78.4794C616.449 79.5461 617.835 80.9754 618.859 82.7674C619.883 84.5167 620.395 86.6927 620.395 89.2954V107.791H606.443ZM566.571 107.791V63.5674H580.523V107.791H566.571Z" fill="#1E2939"/>
<path d="M515.747 96.6555H528.611C529.165 97.8501 530.253 98.7035 531.875 99.2155C533.539 99.7275 535.885 99.9835 538.915 99.9835C541.176 99.9835 542.861 99.8555 543.971 99.5995C545.08 99.3435 545.805 99.0021 546.147 98.5755C546.531 98.1061 546.723 97.5941 546.723 97.0395C546.723 96.3141 546.339 95.8021 545.571 95.5035C544.845 95.1621 543.608 94.9275 541.859 94.7995C540.152 94.6715 537.805 94.5861 534.819 94.5435C531.96 94.5008 529.379 94.3301 527.075 94.0315C524.813 93.6901 522.872 93.2208 521.251 92.6235C519.629 91.9835 518.371 91.1088 517.475 89.9995C516.621 88.8901 516.195 87.5035 516.195 85.8395C516.195 83.9195 516.792 82.2768 517.987 80.9115C519.224 79.5461 520.867 78.4795 522.915 77.7115C525.005 76.9008 527.416 76.3248 530.147 75.9835C532.877 75.5995 535.757 75.4075 538.787 75.4075C543.693 75.4075 547.725 75.9408 550.883 77.0075C554.04 78.0741 556.365 79.5035 557.859 81.2955C559.395 83.0875 560.141 85.1141 560.099 87.3755H547.619C547.149 86.1808 546.296 85.3488 545.059 84.8795C543.821 84.3675 541.731 84.1115 538.787 84.1115C535.971 84.1115 533.923 84.3675 532.643 84.8795C531.363 85.3488 530.723 86.0955 530.723 87.1195C530.723 87.8021 531.043 88.3355 531.683 88.7195C532.365 89.0608 533.56 89.3168 535.267 89.4875C537.016 89.6155 539.533 89.7221 542.819 89.8075C545.123 89.8501 547.363 89.9995 549.539 90.2555C551.757 90.4688 553.741 90.8741 555.491 91.4715C557.24 92.0261 558.627 92.8795 559.651 94.0315C560.717 95.1408 561.251 96.6768 561.251 98.6395C561.251 100.986 560.333 102.906 558.499 104.399C556.664 105.893 554.083 106.981 550.755 107.663C547.427 108.346 543.48 108.687 538.915 108.687C534.904 108.687 531.512 108.41 528.739 107.855C526.008 107.301 523.768 106.575 522.019 105.679C520.269 104.741 518.904 103.738 517.923 102.671C516.984 101.605 516.365 100.538 516.067 99.4715C515.768 98.4048 515.661 97.4661 515.747 96.6555Z" fill="#1E2939"/>
<path d="M484.061 108.687C477.831 108.687 472.605 108.133 468.381 107.023C464.157 105.871 460.978 104.079 458.845 101.647C456.711 99.2155 455.645 96.0368 455.645 92.1115C455.645 88.2288 456.711 85.0715 458.845 82.6395C460.978 80.1648 464.157 78.3515 468.381 77.1995C472.605 76.0048 477.831 75.4075 484.061 75.4075C490.247 75.4075 495.41 76.0048 499.549 77.1995C503.73 78.3515 506.866 80.1648 508.957 82.6395C511.09 85.0715 512.157 88.2288 512.157 92.1115C512.157 96.0368 511.09 99.2155 508.957 101.647C506.866 104.079 503.73 105.871 499.549 107.023C495.41 108.133 490.247 108.687 484.061 108.687ZM484.061 99.9835C487.005 99.9835 489.501 99.7061 491.549 99.1515C493.639 98.5541 495.218 97.6795 496.285 96.5275C497.394 95.3328 497.949 93.8608 497.949 92.1115C497.949 90.4048 497.415 88.9541 496.349 87.7595C495.282 86.5648 493.703 85.6688 491.613 85.0715C489.565 84.4315 487.047 84.1115 484.061 84.1115C481.074 84.1115 478.514 84.4315 476.381 85.0715C474.29 85.6688 472.69 86.5648 471.581 87.7595C470.471 88.9115 469.917 90.3621 469.917 92.1115C469.917 93.8608 470.45 95.3328 471.517 96.5275C472.626 97.6795 474.226 98.5541 476.317 99.1515C478.45 99.7061 481.031 99.9835 484.061 99.9835Z" fill="#1E2939"/>
<path d="M423.638 108.687C417.408 108.687 412.182 108.133 407.958 107.023C403.734 105.871 400.555 104.079 398.422 101.647C396.288 99.2155 395.222 96.0368 395.222 92.1115C395.222 88.2288 396.288 85.0715 398.422 82.6395C400.555 80.1648 403.734 78.3515 407.958 77.1995C412.182 76.0048 417.408 75.4075 423.638 75.4075C429.824 75.4075 434.987 76.0048 439.126 77.1995C443.307 78.3515 446.443 80.1648 448.534 82.6395C450.667 85.0715 451.734 88.2288 451.734 92.1115C451.734 96.0368 450.667 99.2155 448.534 101.647C446.443 104.079 443.307 105.871 439.126 107.023C434.987 108.133 429.824 108.687 423.638 108.687ZM423.638 99.9835C426.582 99.9835 429.078 99.7061 431.126 99.1515C433.216 98.5541 434.795 97.6795 435.862 96.5275C436.971 95.3328 437.526 93.8608 437.526 92.1115C437.526 90.4048 436.992 88.9541 435.926 87.7595C434.859 86.5648 433.28 85.6688 431.19 85.0715C429.142 84.4315 426.624 84.1115 423.638 84.1115C420.651 84.1115 418.091 84.4315 415.958 85.0715C413.867 85.6688 412.267 86.5648 411.158 87.7595C410.048 88.9115 409.494 90.3621 409.494 92.1115C409.494 93.8608 410.027 95.3328 411.094 96.5275C412.203 97.6795 413.803 98.5541 415.894 99.1515C418.027 99.7061 420.608 99.9835 423.638 99.9835Z" fill="#1E2939"/>
<path d="M297.569 76.3675H311.521V107.791H297.569V76.3675ZM332.897 75.4075C335.329 75.4075 337.633 75.6848 339.809 76.2395C342.028 76.7515 343.99 77.6261 345.697 78.8635C347.446 80.1008 348.833 81.7861 349.857 83.9195C350.881 86.0101 351.393 88.6341 351.393 91.7915V107.791H337.441V93.5835C337.441 90.5115 336.652 88.3141 335.073 86.9915C333.494 85.6261 330.657 84.9435 326.561 84.9435C324.3 84.9435 322.124 85.2421 320.033 85.8395C317.942 86.4368 316.108 87.1408 314.529 87.9515C312.95 88.7621 311.756 89.5941 310.945 90.4475L310.817 87.8235C310.988 86.9275 311.542 85.7755 312.481 84.3675C313.462 82.9595 314.849 81.5941 316.641 80.2715C318.433 78.9061 320.673 77.7541 323.361 76.8155C326.049 75.8768 329.228 75.4075 332.897 75.4075ZM372.065 75.4075C374.454 75.4075 376.758 75.6848 378.977 76.2395C381.196 76.7515 383.158 77.6261 384.865 78.8635C386.614 80.1008 388.001 81.7861 389.025 83.9195C390.049 86.0101 390.561 88.6341 390.561 91.7915V107.791H376.609V93.5835C376.609 90.5115 375.798 88.3141 374.177 86.9915C372.598 85.6261 369.782 84.9435 365.729 84.9435C363.425 84.9435 361.228 85.2421 359.137 85.8395C357.089 86.4368 355.254 87.1408 353.633 87.9515C352.054 88.7621 350.86 89.5941 350.049 90.4475L349.921 87.2475C350.092 86.4795 350.71 85.4555 351.777 84.1755C352.844 82.8528 354.316 81.5301 356.193 80.2075C358.07 78.8848 360.332 77.7541 362.977 76.8155C365.665 75.8768 368.694 75.4075 372.065 75.4075Z" fill="#1E2939"/>
<path d="M247.384 96.6555H260.248C260.803 97.8501 261.891 98.7035 263.512 99.2155C265.176 99.7275 267.523 99.9835 270.552 99.9835C272.814 99.9835 274.499 99.8555 275.608 99.5995C276.718 99.3435 277.443 99.0021 277.784 98.5755C278.168 98.1061 278.36 97.5941 278.36 97.0395C278.36 96.3141 277.976 95.8021 277.208 95.5035C276.483 95.1621 275.246 94.9275 273.496 94.7995C271.79 94.6715 269.443 94.5861 266.456 94.5435C263.598 94.5008 261.016 94.3301 258.712 94.0315C256.451 93.6901 254.51 93.2208 252.888 92.6235C251.267 91.9835 250.008 91.1088 249.112 89.9995C248.259 88.8901 247.832 87.5035 247.832 85.8395C247.832 83.9195 248.43 82.2768 249.624 80.9115C250.862 79.5461 252.504 78.4795 254.552 77.7115C256.643 76.9008 259.054 76.3248 261.784 75.9835C264.515 75.5995 267.395 75.4075 270.424 75.4075C275.331 75.4075 279.363 75.9408 282.52 77.0075C285.678 78.0741 288.003 79.5035 289.496 81.2955C291.032 83.0875 291.779 85.1141 291.736 87.3755H279.256C278.787 86.1808 277.934 85.3488 276.696 84.8795C275.459 84.3675 273.368 84.1115 270.424 84.1115C267.608 84.1115 265.56 84.3675 264.28 84.8795C263 85.3488 262.36 86.0955 262.36 87.1195C262.36 87.8021 262.68 88.3355 263.32 88.7195C264.003 89.0608 265.198 89.3168 266.904 89.4875C268.654 89.6155 271.171 89.7221 274.456 89.8075C276.76 89.8501 279 89.9995 281.176 90.2555C283.395 90.4688 285.379 90.8741 287.128 91.4715C288.878 92.0261 290.264 92.8795 291.288 94.0315C292.355 95.1408 292.888 96.6768 292.888 98.6395C292.888 100.986 291.971 102.906 290.136 104.399C288.302 105.893 285.72 106.981 282.392 107.663C279.064 108.346 275.118 108.687 270.552 108.687C266.542 108.687 263.15 108.41 260.376 107.855C257.646 107.301 255.406 106.575 253.656 105.679C251.907 104.741 250.542 103.738 249.56 102.671C248.622 101.605 248.003 100.538 247.704 99.4715C247.406 98.4048 247.299 97.4661 247.384 96.6555Z" fill="#1E2939"/>
<path d="M921.622 70.6714H981.942V81.6914H921.622V70.6714ZM944.532 80.9374H959.032V107.791H944.532V80.9374Z" fill="#1E2939"/>
<path d="M858.363 94.1616H874.197C874.468 94.9736 875.26 95.6696 876.575 96.2496C877.89 96.7909 879.649 97.2163 881.853 97.5256C884.096 97.7963 886.686 97.9316 889.625 97.9316C892.525 97.9316 894.806 97.8543 896.469 97.6996C898.17 97.5063 899.369 97.1969 900.065 96.7716C900.761 96.3076 901.109 95.6889 901.109 94.9156C901.109 94.1809 900.548 93.6203 899.427 93.2336C898.306 92.8083 896.314 92.5183 893.453 92.3636C890.592 92.2089 886.57 92.1316 881.389 92.1316C877.522 92.1316 874.178 91.9576 871.355 91.6096C868.571 91.2229 866.27 90.6429 864.453 89.8696C862.674 89.0576 861.36 88.0523 860.509 86.8536C859.658 85.6163 859.233 84.1469 859.233 82.4456C859.233 79.5069 860.219 77.0903 862.191 75.1956C864.202 73.2623 867.218 71.8316 871.239 70.9036C875.299 69.9369 880.364 69.4536 886.435 69.4536C895.328 69.4536 902.114 70.7489 906.793 73.3396C911.51 75.8916 913.869 79.5843 913.869 84.4176H898.847C898.654 83.1416 897.455 82.1749 895.251 81.5176C893.047 80.8216 889.915 80.4736 885.855 80.4736C881.834 80.4736 878.837 80.7056 876.865 81.1696C874.932 81.6336 873.965 82.4263 873.965 83.5476C873.965 84.1276 874.236 84.5916 874.777 84.9396C875.318 85.2876 876.246 85.5776 877.561 85.8096C878.914 86.0029 880.809 86.1383 883.245 86.2156C885.681 86.2929 888.774 86.3316 892.525 86.3316C896.662 86.3316 900.181 86.5443 903.081 86.9696C905.981 87.3563 908.32 87.9556 910.099 88.7676C911.916 89.5796 913.231 90.6236 914.043 91.8996C914.855 93.1369 915.261 94.6063 915.261 96.3076C915.261 99.2463 914.333 101.644 912.477 103.5C910.621 105.356 907.682 106.728 903.661 107.618C899.64 108.507 894.381 108.952 887.885 108.952C884.212 108.952 880.828 108.739 877.735 108.314C874.68 107.888 871.954 107.27 869.557 106.458C867.16 105.607 865.13 104.582 863.467 103.384C861.804 102.146 860.528 100.774 859.639 99.2656C858.788 97.7189 858.363 96.0176 858.363 94.1616Z" fill="#1E2939"/>
<path d="M814.859 108.951C806.429 108.951 799.643 108.217 794.501 106.747C789.358 105.239 785.607 103.035 783.249 100.135C780.929 97.1968 779.769 93.5621 779.769 89.2315C779.769 84.9008 780.929 81.2855 783.249 78.3855C785.607 75.4468 789.358 73.2428 794.501 71.7735C799.643 70.2655 806.429 69.5115 814.859 69.5115C823.288 69.5115 830.074 70.2655 835.217 71.7735C840.359 73.2428 844.091 75.4468 846.411 78.3855C848.769 81.2855 849.949 84.9008 849.949 89.2315C849.949 93.5621 848.769 97.1968 846.411 100.135C844.091 103.035 840.359 105.239 835.217 106.747C830.074 108.217 823.288 108.951 814.859 108.951ZM814.859 97.9315C818.841 97.9315 822.283 97.6995 825.183 97.2355C828.083 96.7328 830.325 95.8628 831.911 94.6255C833.496 93.3495 834.289 91.5515 834.289 89.2315C834.289 86.9115 833.496 85.1328 831.911 83.8955C830.325 82.6195 828.083 81.7495 825.183 81.2855C822.283 80.7828 818.841 80.5315 814.859 80.5315C810.876 80.5315 807.377 80.7828 804.361 81.2855C801.383 81.7495 799.044 82.6195 797.343 83.8955C795.68 85.1328 794.849 86.9115 794.849 89.2315C794.849 91.5515 795.68 93.3495 797.343 94.6255C799.044 95.8628 801.383 96.7328 804.361 97.2355C807.377 97.6995 810.876 97.9315 814.859 97.9315Z" fill="#1E2939"/>
<path d="M736.554 108.951C728.125 108.951 721.339 108.217 716.196 106.747C711.053 105.239 707.303 103.035 704.944 100.135C702.624 97.1968 701.464 93.5621 701.464 89.2315C701.464 84.9008 702.624 81.2855 704.944 78.3855C707.303 75.4468 711.053 73.2428 716.196 71.7735C721.339 70.2655 728.125 69.5115 736.554 69.5115C744.983 69.5115 751.769 70.2655 756.912 71.7735C762.055 73.2428 765.786 75.4468 768.106 78.3855C770.465 81.2855 771.644 84.9008 771.644 89.2315C771.644 93.5621 770.465 97.1968 768.106 100.135C765.786 103.035 762.055 105.239 756.912 106.747C751.769 108.217 744.983 108.951 736.554 108.951ZM736.554 97.9315C740.537 97.9315 743.978 97.6995 746.878 97.2355C749.778 96.7328 752.021 95.8628 753.606 94.6255C755.191 93.3495 755.984 91.5515 755.984 89.2315C755.984 86.9115 755.191 85.1328 753.606 83.8955C752.021 82.6195 749.778 81.7495 746.878 81.2855C743.978 80.7828 740.537 80.5315 736.554 80.5315C732.571 80.5315 729.072 80.7828 726.056 81.2855C723.079 81.7495 720.739 82.6195 719.038 83.8955C717.375 85.1328 716.544 86.9115 716.544 89.2315C716.544 91.5515 717.375 93.3495 719.038 94.6255C720.739 95.8628 723.079 96.7328 726.056 97.2355C729.072 97.6995 732.571 97.9315 736.554 97.9315Z" fill="#1E2939"/>
<path d="M631.884 107.791V70.6714H668.424C675.926 70.6714 681.455 71.4061 685.012 72.8754C688.57 74.3447 690.348 76.8967 690.348 80.5314C690.348 82.8514 689.575 84.6301 688.028 85.8674C686.52 87.1047 684.336 87.9747 681.474 88.4774C678.652 88.9414 675.249 89.2314 671.266 89.3474L671.73 88.8834C674.63 88.8834 677.318 88.9607 679.792 89.1154C682.267 89.2701 684.432 89.6181 686.288 90.1594C688.144 90.7007 689.594 91.5321 690.638 92.6534C691.682 93.7747 692.204 95.3214 692.204 97.2934C692.204 99.6907 691.354 101.663 689.652 103.209C687.951 104.756 685.534 105.916 682.402 106.689C679.27 107.424 675.578 107.791 671.324 107.791H631.884ZM646.384 96.8874H671.324C673.374 96.8874 674.843 96.6941 675.732 96.3074C676.66 95.9207 677.124 95.3021 677.124 94.4514C677.124 93.8714 676.912 93.4074 676.486 93.0594C676.1 92.7114 675.481 92.4601 674.63 92.3054C673.78 92.1121 672.678 92.0154 671.324 92.0154H646.384V96.8874ZM646.384 86.4474H668.888C670.938 86.4474 672.407 86.2541 673.296 85.8674C674.224 85.4807 674.688 84.8621 674.688 84.0114C674.688 83.1221 674.224 82.5034 673.296 82.1554C672.407 81.7687 670.938 81.5754 668.888 81.5754H646.384V86.4474Z" fill="#1E2939"/>
<path d="M848.441 135.372H851.951V148.791H848.441V135.372ZM858.188 135.075C859.016 135.075 859.781 135.183 860.483 135.399C861.185 135.615 861.797 135.948 862.319 136.398C862.841 136.848 863.246 137.424 863.534 138.126C863.822 138.81 863.966 139.629 863.966 140.583V148.791H860.456V141.204C860.456 140.07 860.177 139.242 859.619 138.72C859.079 138.18 858.188 137.91 856.946 137.91C856.01 137.91 855.164 138.09 854.408 138.45C853.652 138.81 853.04 139.269 852.572 139.827C852.104 140.367 851.834 140.934 851.762 141.528L851.735 140.151C851.825 139.521 852.032 138.909 852.356 138.315C852.68 137.721 853.112 137.181 853.652 136.695C854.21 136.191 854.867 135.795 855.623 135.507C856.379 135.219 857.234 135.075 858.188 135.075Z" fill="#364153" fill-opacity="0.6"/>
<path d="M837.611 149.115C835.919 149.115 834.425 148.845 833.129 148.305C831.851 147.765 830.852 146.982 830.132 145.956C829.412 144.912 829.052 143.634 829.052 142.122C829.052 140.61 829.412 139.332 830.132 138.288C830.852 137.226 831.851 136.425 833.129 135.885C834.425 135.345 835.919 135.075 837.611 135.075C839.303 135.075 840.779 135.345 842.039 135.885C843.317 136.425 844.316 137.226 845.036 138.288C845.756 139.332 846.116 140.61 846.116 142.122C846.116 143.634 845.756 144.912 845.036 145.956C844.316 146.982 843.317 147.765 842.039 148.305C840.779 148.845 839.303 149.115 837.611 149.115ZM837.611 146.415C838.547 146.415 839.384 146.253 840.122 145.929C840.878 145.587 841.472 145.101 841.904 144.471C842.336 143.823 842.552 143.04 842.552 142.122C842.552 141.204 842.336 140.421 841.904 139.773C841.472 139.107 840.887 138.603 840.149 138.261C839.411 137.919 838.565 137.748 837.611 137.748C836.675 137.748 835.829 137.919 835.073 138.261C834.317 138.603 833.714 139.098 833.264 139.746C832.832 140.394 832.616 141.186 832.616 142.122C832.616 143.04 832.832 143.823 833.264 144.471C833.696 145.101 834.29 145.587 835.046 145.929C835.802 146.253 836.657 146.415 837.611 146.415Z" fill="#364153" fill-opacity="0.6"/>
<path d="M826.769 129.487V132.565H822.692V129.487H826.769ZM822.962 135.373H826.472V148.792H822.962V135.373Z" fill="#364153" fill-opacity="0.6"/>
<path d="M810.364 135.372H820.786V138.099H810.364V135.372ZM813.82 131.7H817.33V148.791H813.82V131.7Z" fill="#364153" fill-opacity="0.6"/>
<path d="M798.601 149.088C797.269 149.088 796.054 148.8 794.956 148.224C793.876 147.63 793.012 146.811 792.364 145.767C791.734 144.705 791.419 143.481 791.419 142.095C791.419 140.673 791.743 139.44 792.391 138.396C793.039 137.352 793.912 136.542 795.01 135.966C796.126 135.372 797.386 135.075 798.79 135.075C800.338 135.075 801.58 135.39 802.516 136.02C803.47 136.632 804.163 137.469 804.595 138.531C805.027 139.593 805.243 140.781 805.243 142.095C805.243 142.887 805.117 143.697 804.865 144.525C804.613 145.335 804.226 146.091 803.704 146.793C803.182 147.477 802.498 148.035 801.652 148.467C800.806 148.881 799.789 149.088 798.601 149.088ZM799.735 146.388C800.797 146.388 801.715 146.208 802.489 145.848C803.263 145.488 803.857 144.984 804.271 144.336C804.685 143.688 804.892 142.941 804.892 142.095C804.892 141.177 804.676 140.403 804.244 139.773C803.83 139.125 803.236 138.639 802.462 138.315C801.706 137.973 800.797 137.802 799.735 137.802C798.241 137.802 797.08 138.198 796.252 138.99C795.424 139.764 795.01 140.799 795.01 142.095C795.01 142.959 795.208 143.715 795.604 144.363C796 144.993 796.549 145.488 797.251 145.848C797.971 146.208 798.799 146.388 799.735 146.388ZM804.892 135.372H808.402V148.791H805.135C805.135 148.791 805.108 148.62 805.054 148.278C805.018 147.918 804.982 147.468 804.946 146.928C804.91 146.388 804.892 145.857 804.892 145.335V135.372Z" fill="#364153" fill-opacity="0.6"/>
<path d="M789.199 138.046L778.534 147.172L778.156 146.146H789.388V148.792H775.645V146.146L786.31 137.02L786.688 138.046H775.645V135.373H789.199V138.046Z" fill="#364153" fill-opacity="0.6"/>
<path d="M772.794 129.487V132.565H768.717V129.487H772.794ZM768.987 135.373H772.497V148.792H768.987V135.373Z" fill="#364153" fill-opacity="0.6"/>
<path d="M738.613 135.372H742.123V148.791H738.613V135.372ZM748.36 135.075C749.188 135.075 749.953 135.183 750.655 135.399C751.357 135.615 751.969 135.948 752.491 136.398C753.013 136.848 753.418 137.424 753.706 138.126C753.994 138.81 754.138 139.629 754.138 140.583V148.791H750.628V141.204C750.628 140.07 750.349 139.242 749.791 138.72C749.251 138.18 748.36 137.91 747.118 137.91C746.182 137.91 745.336 138.09 744.58 138.45C743.824 138.81 743.212 139.269 742.744 139.827C742.276 140.367 742.006 140.934 741.934 141.528L741.907 140.151C741.997 139.521 742.204 138.909 742.528 138.315C742.852 137.721 743.284 137.181 743.824 136.695C744.382 136.191 745.039 135.795 745.795 135.507C746.551 135.219 747.406 135.075 748.36 135.075ZM760.051 135.075C760.879 135.075 761.644 135.183 762.346 135.399C763.048 135.615 763.66 135.948 764.182 136.398C764.704 136.848 765.109 137.424 765.397 138.126C765.703 138.81 765.856 139.629 765.856 140.583V148.791H762.346V141.204C762.346 140.07 762.067 139.242 761.509 138.72C760.951 138.18 760.051 137.91 758.809 137.91C757.873 137.91 757.027 138.09 756.271 138.45C755.515 138.81 754.903 139.269 754.435 139.827C753.967 140.367 753.706 140.934 753.652 141.528L753.598 140.07C753.688 139.476 753.904 138.882 754.246 138.288C754.588 137.694 755.038 137.154 755.596 136.668C756.154 136.182 756.802 135.795 757.54 135.507C758.296 135.219 759.133 135.075 760.051 135.075Z" fill="#364153" fill-opacity="0.6"/>
<path d="M735.681 129.487V132.565H731.604V129.487H735.681ZM731.874 135.373H735.384V148.792H731.874V135.373Z" fill="#364153" fill-opacity="0.6"/>
<path d="M719.276 135.372H729.698V138.099H719.276V135.372ZM722.732 131.7H726.242V148.791H722.732V131.7Z" fill="#364153" fill-opacity="0.6"/>
<path d="M710.728 149.115C709.54 149.115 708.523 148.908 707.677 148.494C706.849 148.062 706.174 147.504 705.652 146.82C705.13 146.118 704.743 145.353 704.491 144.525C704.239 143.697 704.113 142.887 704.113 142.095C704.113 141.105 704.23 140.187 704.464 139.341C704.716 138.495 705.103 137.757 705.625 137.127C706.147 136.479 706.822 135.975 707.65 135.615C708.496 135.255 709.522 135.075 710.728 135.075C712.078 135.075 713.293 135.372 714.373 135.966C715.453 136.56 716.308 137.388 716.938 138.45C717.586 139.494 717.91 140.709 717.91 142.095C717.91 143.517 717.586 144.759 716.938 145.821C716.29 146.865 715.426 147.675 714.346 148.251C713.266 148.827 712.06 149.115 710.728 149.115ZM709.594 146.388C710.548 146.388 711.376 146.208 712.078 145.848C712.798 145.488 713.347 144.993 713.725 144.363C714.121 143.715 714.319 142.959 714.319 142.095C714.319 140.799 713.905 139.755 713.077 138.963C712.267 138.171 711.106 137.775 709.594 137.775C708.64 137.775 707.767 137.946 706.975 138.288C706.201 138.63 705.589 139.125 705.139 139.773C704.689 140.403 704.464 141.177 704.464 142.095C704.464 142.959 704.671 143.715 705.085 144.363C705.499 144.993 706.093 145.488 706.867 145.848C707.641 146.208 708.55 146.388 709.594 146.388ZM700.954 135.372H704.302L704.464 138.936V154.191H700.954V135.372Z" fill="#364153" fill-opacity="0.6"/>
<path d="M687.134 149.142C684.812 149.142 682.823 148.782 681.167 148.062C679.529 147.324 678.269 146.28 677.387 144.93C676.523 143.58 676.091 141.96 676.091 140.07C676.091 138.162 676.523 136.533 677.387 135.183C678.269 133.833 679.529 132.798 681.167 132.078C682.823 131.34 684.812 130.971 687.134 130.971C689.474 130.971 691.463 131.34 693.101 132.078C694.739 132.798 695.99 133.833 696.854 135.183C697.736 136.533 698.177 138.162 698.177 140.07C698.177 141.96 697.736 143.58 696.854 144.93C695.99 146.28 694.739 147.324 693.101 148.062C691.463 148.782 689.474 149.142 687.134 149.142ZM687.134 146.037C688.574 146.037 689.834 145.821 690.914 145.389C692.012 144.957 692.867 144.3 693.479 143.418C694.109 142.536 694.424 141.42 694.424 140.07C694.424 138.72 694.109 137.604 693.479 136.722C692.867 135.84 692.012 135.183 690.914 134.751C689.834 134.301 688.574 134.076 687.134 134.076C685.712 134.076 684.443 134.301 683.327 134.751C682.211 135.183 681.338 135.84 680.708 136.722C680.078 137.604 679.763 138.72 679.763 140.07C679.763 141.42 680.078 142.536 680.708 143.418C681.338 144.3 682.211 144.957 683.327 145.389C684.443 145.821 685.712 146.037 687.134 146.037Z" fill="#364153" fill-opacity="0.6"/>
<path d="M654.929 140.205H667.349V142.77H654.929V140.205ZM662.597 136.398V146.604H659.681V136.398H662.597Z" fill="#364153" fill-opacity="0.6"/>
<path d="M630.506 135.372H634.016V148.791H630.506V135.372ZM640.253 135.075C641.081 135.075 641.846 135.183 642.548 135.399C643.25 135.615 643.862 135.948 644.384 136.398C644.906 136.848 645.311 137.424 645.599 138.126C645.887 138.81 646.031 139.629 646.031 140.583V148.791H642.521V141.204C642.521 140.07 642.242 139.242 641.684 138.72C641.144 138.18 640.253 137.91 639.011 137.91C638.075 137.91 637.229 138.09 636.473 138.45C635.717 138.81 635.105 139.269 634.637 139.827C634.169 140.367 633.899 140.934 633.827 141.528L633.8 140.151C633.89 139.521 634.097 138.909 634.421 138.315C634.745 137.721 635.177 137.181 635.717 136.695C636.275 136.191 636.932 135.795 637.688 135.507C638.444 135.219 639.299 135.075 640.253 135.075Z" fill="#364153" fill-opacity="0.6"/>
<path d="M619.676 149.115C617.984 149.115 616.49 148.845 615.194 148.305C613.916 147.765 612.917 146.982 612.197 145.956C611.477 144.912 611.117 143.634 611.117 142.122C611.117 140.61 611.477 139.332 612.197 138.288C612.917 137.226 613.916 136.425 615.194 135.885C616.49 135.345 617.984 135.075 619.676 135.075C621.368 135.075 622.844 135.345 624.104 135.885C625.382 136.425 626.381 137.226 627.101 138.288C627.821 139.332 628.181 140.61 628.181 142.122C628.181 143.634 627.821 144.912 627.101 145.956C626.381 146.982 625.382 147.765 624.104 148.305C622.844 148.845 621.368 149.115 619.676 149.115ZM619.676 146.415C620.612 146.415 621.449 146.253 622.187 145.929C622.943 145.587 623.537 145.101 623.969 144.471C624.401 143.823 624.617 143.04 624.617 142.122C624.617 141.204 624.401 140.421 623.969 139.773C623.537 139.107 622.952 138.603 622.214 138.261C621.476 137.919 620.63 137.748 619.676 137.748C618.74 137.748 617.894 137.919 617.138 138.261C616.382 138.603 615.779 139.098 615.329 139.746C614.897 140.394 614.681 141.186 614.681 142.122C614.681 143.04 614.897 143.823 615.329 144.471C615.761 145.101 616.355 145.587 617.111 145.929C617.867 146.253 618.722 146.415 619.676 146.415Z" fill="#364153" fill-opacity="0.6"/>
<path d="M608.833 129.487V132.565H604.756V129.487H608.833ZM605.026 135.373H608.536V148.792H605.026V135.373Z" fill="#364153" fill-opacity="0.6"/>
<path d="M589.3 144.336H592.54C592.738 144.948 593.143 145.452 593.755 145.848C594.385 146.226 595.204 146.415 596.212 146.415C596.896 146.415 597.427 146.352 597.805 146.226C598.183 146.1 598.444 145.92 598.588 145.686C598.732 145.434 598.804 145.155 598.804 144.849C598.804 144.471 598.687 144.183 598.453 143.985C598.219 143.769 597.859 143.598 597.373 143.472C596.887 143.346 596.266 143.229 595.51 143.121C594.754 142.995 594.025 142.842 593.323 142.662C592.621 142.482 592 142.248 591.46 141.96C590.92 141.654 590.488 141.276 590.164 140.826C589.858 140.358 589.705 139.791 589.705 139.125C589.705 138.477 589.858 137.901 590.164 137.397C590.488 136.893 590.929 136.47 591.487 136.128C592.063 135.786 592.729 135.525 593.485 135.345C594.259 135.165 595.087 135.075 595.969 135.075C597.301 135.075 598.408 135.273 599.29 135.669C600.172 136.047 600.829 136.587 601.261 137.289C601.711 137.973 601.936 138.765 601.936 139.665H598.831C598.687 138.999 598.399 138.522 597.967 138.234C597.535 137.928 596.869 137.775 595.969 137.775C595.087 137.775 594.421 137.91 593.971 138.18C593.521 138.45 593.296 138.819 593.296 139.287C593.296 139.665 593.431 139.962 593.701 140.178C593.989 140.376 594.403 140.538 594.943 140.664C595.501 140.79 596.194 140.925 597.022 141.069C597.724 141.213 598.39 141.375 599.02 141.555C599.668 141.735 600.244 141.969 600.748 142.257C601.252 142.527 601.648 142.896 601.936 143.364C602.242 143.814 602.395 144.39 602.395 145.092C602.395 145.956 602.143 146.685 601.639 147.279C601.153 147.873 600.451 148.332 599.533 148.656C598.615 148.962 597.517 149.115 596.239 149.115C595.105 149.115 594.124 148.998 593.296 148.764C592.486 148.512 591.811 148.197 591.271 147.819C590.731 147.423 590.308 147.009 590.002 146.577C589.714 146.127 589.516 145.704 589.408 145.308C589.3 144.912 589.264 144.588 589.3 144.336Z" fill="#364153" fill-opacity="0.6"/>
<path d="M574.33 144.336H577.57C577.768 144.948 578.173 145.452 578.785 145.848C579.415 146.226 580.234 146.415 581.242 146.415C581.926 146.415 582.457 146.352 582.835 146.226C583.213 146.1 583.474 145.92 583.618 145.686C583.762 145.434 583.834 145.155 583.834 144.849C583.834 144.471 583.717 144.183 583.483 143.985C583.249 143.769 582.889 143.598 582.403 143.472C581.917 143.346 581.296 143.229 580.54 143.121C579.784 142.995 579.055 142.842 578.353 142.662C577.651 142.482 577.03 142.248 576.49 141.96C575.95 141.654 575.518 141.276 575.194 140.826C574.888 140.358 574.735 139.791 574.735 139.125C574.735 138.477 574.888 137.901 575.194 137.397C575.518 136.893 575.959 136.47 576.517 136.128C577.093 135.786 577.759 135.525 578.515 135.345C579.289 135.165 580.117 135.075 580.999 135.075C582.331 135.075 583.438 135.273 584.32 135.669C585.202 136.047 585.859 136.587 586.291 137.289C586.741 137.973 586.966 138.765 586.966 139.665H583.861C583.717 138.999 583.429 138.522 582.997 138.234C582.565 137.928 581.899 137.775 580.999 137.775C580.117 137.775 579.451 137.91 579.001 138.18C578.551 138.45 578.326 138.819 578.326 139.287C578.326 139.665 578.461 139.962 578.731 140.178C579.019 140.376 579.433 140.538 579.973 140.664C580.531 140.79 581.224 140.925 582.052 141.069C582.754 141.213 583.42 141.375 584.05 141.555C584.698 141.735 585.274 141.969 585.778 142.257C586.282 142.527 586.678 142.896 586.966 143.364C587.272 143.814 587.425 144.39 587.425 145.092C587.425 145.956 587.173 146.685 586.669 147.279C586.183 147.873 585.481 148.332 584.563 148.656C583.645 148.962 582.547 149.115 581.269 149.115C580.135 149.115 579.154 148.998 578.326 148.764C577.516 148.512 576.841 148.197 576.301 147.819C575.761 147.423 575.338 147.009 575.032 146.577C574.744 146.127 574.546 145.704 574.438 145.308C574.33 144.912 574.294 144.588 574.33 144.336Z" fill="#364153" fill-opacity="0.6"/>
<path d="M569.072 144.336H572.474C572.33 145.254 571.943 146.073 571.313 146.793C570.701 147.513 569.864 148.08 568.802 148.494C567.74 148.908 566.444 149.115 564.914 149.115C563.204 149.115 561.692 148.845 560.378 148.305C559.064 147.747 558.038 146.946 557.3 145.902C556.562 144.858 556.193 143.598 556.193 142.122C556.193 140.646 556.553 139.386 557.273 138.342C557.993 137.28 558.992 136.47 560.27 135.912C561.566 135.354 563.078 135.075 564.806 135.075C566.57 135.075 568.037 135.354 569.207 135.912C570.377 136.47 571.241 137.316 571.799 138.45C572.375 139.566 572.618 140.997 572.528 142.743H559.73C559.82 143.427 560.072 144.048 560.486 144.606C560.918 145.164 561.494 145.605 562.214 145.929C562.952 146.253 563.825 146.415 564.833 146.415C565.949 146.415 566.876 146.226 567.614 145.848C568.37 145.452 568.856 144.948 569.072 144.336ZM564.644 137.748C563.348 137.748 562.295 138.036 561.485 138.612C560.675 139.17 560.153 139.863 559.919 140.691H569.045C568.955 139.791 568.523 139.08 567.749 138.558C566.993 138.018 565.958 137.748 564.644 137.748Z" fill="#364153" fill-opacity="0.6"/>
<path d="M546.274 135.372H549.784V148.791H546.274V135.372ZM554.941 138.261C553.933 138.261 553.06 138.459 552.322 138.855C551.584 139.233 550.99 139.701 550.54 140.259C550.09 140.817 549.775 141.357 549.595 141.879L549.568 140.394C549.586 140.178 549.658 139.863 549.784 139.449C549.91 139.017 550.099 138.558 550.351 138.072C550.603 137.568 550.936 137.091 551.35 136.641C551.764 136.173 552.268 135.795 552.862 135.507C553.456 135.219 554.149 135.075 554.941 135.075V138.261Z" fill="#364153" fill-opacity="0.6"/>
<path d="M536.78 149.115C535.592 149.115 534.575 148.908 533.729 148.494C532.901 148.062 532.226 147.504 531.704 146.82C531.182 146.118 530.795 145.353 530.543 144.525C530.291 143.697 530.165 142.887 530.165 142.095C530.165 141.105 530.282 140.187 530.516 139.341C530.768 138.495 531.155 137.757 531.677 137.127C532.199 136.479 532.874 135.975 533.702 135.615C534.548 135.255 535.574 135.075 536.78 135.075C538.13 135.075 539.345 135.372 540.425 135.966C541.505 136.56 542.36 137.388 542.99 138.45C543.638 139.494 543.962 140.709 543.962 142.095C543.962 143.517 543.638 144.759 542.99 145.821C542.342 146.865 541.478 147.675 540.398 148.251C539.318 148.827 538.112 149.115 536.78 149.115ZM535.646 146.388C536.6 146.388 537.428 146.208 538.13 145.848C538.85 145.488 539.399 144.993 539.777 144.363C540.173 143.715 540.371 142.959 540.371 142.095C540.371 140.799 539.957 139.755 539.129 138.963C538.319 138.171 537.158 137.775 535.646 137.775C534.692 137.775 533.819 137.946 533.027 138.288C532.253 138.63 531.641 139.125 531.191 139.773C530.741 140.403 530.516 141.177 530.516 142.095C530.516 142.959 530.723 143.715 531.137 144.363C531.551 144.993 532.145 145.488 532.919 145.848C533.693 146.208 534.602 146.388 535.646 146.388ZM527.006 135.372H530.354L530.516 138.936V154.191H527.006V135.372Z" fill="#364153" fill-opacity="0.6"/>
<path d="M496.848 135.372H500.358V148.791H496.848V135.372ZM506.595 135.075C507.423 135.075 508.188 135.183 508.89 135.399C509.592 135.615 510.204 135.948 510.726 136.398C511.248 136.848 511.653 137.424 511.941 138.126C512.229 138.81 512.373 139.629 512.373 140.583V148.791H508.863V141.204C508.863 140.07 508.584 139.242 508.026 138.72C507.486 138.18 506.595 137.91 505.353 137.91C504.417 137.91 503.571 138.09 502.815 138.45C502.059 138.81 501.447 139.269 500.979 139.827C500.511 140.367 500.241 140.934 500.169 141.528L500.142 140.151C500.232 139.521 500.439 138.909 500.763 138.315C501.087 137.721 501.519 137.181 502.059 136.695C502.617 136.191 503.274 135.795 504.03 135.507C504.786 135.219 505.641 135.075 506.595 135.075ZM518.286 135.075C519.114 135.075 519.879 135.183 520.581 135.399C521.283 135.615 521.895 135.948 522.417 136.398C522.939 136.848 523.344 137.424 523.632 138.126C523.938 138.81 524.091 139.629 524.091 140.583V148.791H520.581V141.204C520.581 140.07 520.302 139.242 519.744 138.72C519.186 138.18 518.286 137.91 517.044 137.91C516.108 137.91 515.262 138.09 514.506 138.45C513.75 138.81 513.138 139.269 512.67 139.827C512.202 140.367 511.941 140.934 511.887 141.528L511.833 140.07C511.923 139.476 512.139 138.882 512.481 138.288C512.823 137.694 513.273 137.154 513.831 136.668C514.389 136.182 515.037 135.795 515.775 135.507C516.531 135.219 517.368 135.075 518.286 135.075Z" fill="#364153" fill-opacity="0.6"/>
<path d="M486.018 149.115C484.326 149.115 482.832 148.845 481.536 148.305C480.258 147.765 479.259 146.982 478.539 145.956C477.819 144.912 477.459 143.634 477.459 142.122C477.459 140.61 477.819 139.332 478.539 138.288C479.259 137.226 480.258 136.425 481.536 135.885C482.832 135.345 484.326 135.075 486.018 135.075C487.71 135.075 489.186 135.345 490.446 135.885C491.724 136.425 492.723 137.226 493.443 138.288C494.163 139.332 494.523 140.61 494.523 142.122C494.523 143.634 494.163 144.912 493.443 145.956C492.723 146.982 491.724 147.765 490.446 148.305C489.186 148.845 487.71 149.115 486.018 149.115ZM486.018 146.415C486.954 146.415 487.791 146.253 488.529 145.929C489.285 145.587 489.879 145.101 490.311 144.471C490.743 143.823 490.959 143.04 490.959 142.122C490.959 141.204 490.743 140.421 490.311 139.773C489.879 139.107 489.294 138.603 488.556 138.261C487.818 137.919 486.972 137.748 486.018 137.748C485.082 137.748 484.236 137.919 483.48 138.261C482.724 138.603 482.121 139.098 481.671 139.746C481.239 140.394 481.023 141.186 481.023 142.122C481.023 143.04 481.239 143.823 481.671 144.471C482.103 145.101 482.697 145.587 483.453 145.929C484.209 146.253 485.064 146.415 486.018 146.415Z" fill="#364153" fill-opacity="0.6"/>
<path d="M475.333 142.5C475.171 143.904 474.676 145.101 473.848 146.091C473.02 147.081 471.895 147.837 470.473 148.359C469.051 148.881 467.359 149.142 465.397 149.142C463.759 149.142 462.256 148.953 460.888 148.575C459.538 148.197 458.368 147.63 457.378 146.874C456.406 146.118 455.65 145.182 455.11 144.066C454.57 142.932 454.3 141.609 454.3 140.097C454.3 138.585 454.57 137.262 455.11 136.128C455.65 134.994 456.406 134.049 457.378 133.293C458.368 132.519 459.538 131.943 460.888 131.565C462.256 131.169 463.759 130.971 465.397 130.971C467.359 130.971 469.051 131.241 470.473 131.781C471.913 132.321 473.047 133.095 473.875 134.103C474.703 135.093 475.189 136.299 475.333 137.721H471.769C471.535 136.965 471.139 136.317 470.581 135.777C470.041 135.219 469.339 134.796 468.475 134.508C467.611 134.22 466.585 134.076 465.397 134.076C463.921 134.076 462.625 134.31 461.509 134.778C460.393 135.228 459.529 135.903 458.917 136.803C458.305 137.685 457.999 138.783 457.999 140.097C457.999 141.393 458.305 142.482 458.917 143.364C459.529 144.246 460.393 144.921 461.509 145.389C462.625 145.839 463.921 146.064 465.397 146.064C466.585 146.064 467.602 145.92 468.448 145.632C469.312 145.344 470.014 144.93 470.554 144.39C471.112 143.85 471.517 143.22 471.769 142.5H475.333Z" fill="#364153" fill-opacity="0.6"/>
<path d="M442.448 144.336H445.85C445.706 145.254 445.319 146.073 444.689 146.793C444.077 147.513 443.24 148.08 442.178 148.494C441.116 148.908 439.82 149.115 438.29 149.115C436.58 149.115 435.068 148.845 433.754 148.305C432.44 147.747 431.414 146.946 430.676 145.902C429.938 144.858 429.569 143.598 429.569 142.122C429.569 140.646 429.929 139.386 430.649 138.342C431.369 137.28 432.368 136.47 433.646 135.912C434.942 135.354 436.454 135.075 438.182 135.075C439.946 135.075 441.413 135.354 442.583 135.912C443.753 136.47 444.617 137.316 445.175 138.45C445.751 139.566 445.994 140.997 445.904 142.743H433.106C433.196 143.427 433.448 144.048 433.862 144.606C434.294 145.164 434.87 145.605 435.59 145.929C436.328 146.253 437.201 146.415 438.209 146.415C439.325 146.415 440.252 146.226 440.99 145.848C441.746 145.452 442.232 144.948 442.448 144.336ZM438.02 137.748C436.724 137.748 435.671 138.036 434.861 138.612C434.051 139.17 433.529 139.863 433.295 140.691H442.421C442.331 139.791 441.899 139.08 441.125 138.558C440.369 138.018 439.334 137.748 438.02 137.748Z" fill="#364153" fill-opacity="0.6"/>
<path d="M419.306 146.739C417.848 146.739 416.561 146.523 415.445 146.091C414.347 145.641 413.492 144.984 412.88 144.12C412.268 143.256 411.962 142.212 411.962 140.988C411.962 139.782 412.259 138.738 412.853 137.856C413.447 136.974 414.293 136.29 415.391 135.804C416.507 135.318 417.812 135.075 419.306 135.075C419.72 135.075 420.116 135.102 420.494 135.156C420.89 135.21 421.277 135.282 421.655 135.372L428.432 135.399V138.045C427.514 138.063 426.578 137.955 425.624 137.721C424.688 137.469 423.86 137.199 423.14 136.911L423.059 136.722C423.671 137.01 424.247 137.37 424.787 137.802C425.327 138.216 425.759 138.702 426.083 139.26C426.425 139.8 426.596 140.43 426.596 141.15C426.596 142.32 426.299 143.328 425.705 144.174C425.111 145.002 424.265 145.641 423.167 146.091C422.087 146.523 420.8 146.739 419.306 146.739ZM423.815 154.326V153.678C423.815 152.85 423.545 152.274 423.005 151.95C422.483 151.626 421.763 151.464 420.845 151.464H416.66C415.85 151.464 415.166 151.401 414.608 151.275C414.068 151.149 413.636 150.969 413.312 150.735C412.988 150.501 412.754 150.222 412.61 149.898C412.466 149.592 412.394 149.259 412.394 148.899C412.394 148.179 412.628 147.639 413.096 147.279C413.564 146.901 414.194 146.649 414.986 146.523C415.778 146.397 416.651 146.37 417.605 146.442L419.306 146.739C418.172 146.775 417.326 146.874 416.768 147.036C416.228 147.18 415.958 147.477 415.958 147.927C415.958 148.197 416.066 148.413 416.282 148.575C416.498 148.719 416.804 148.791 417.2 148.791H421.601C422.807 148.791 423.833 148.917 424.679 149.169C425.543 149.439 426.2 149.88 426.65 150.492C427.1 151.122 427.325 151.977 427.325 153.057V154.326H423.815ZM419.306 144.201C420.08 144.201 420.755 144.075 421.331 143.823C421.925 143.571 422.384 143.211 422.708 142.743C423.032 142.257 423.194 141.681 423.194 141.015C423.194 140.331 423.032 139.746 422.708 139.26C422.384 138.774 421.934 138.405 421.358 138.153C420.782 137.883 420.098 137.748 419.306 137.748C418.532 137.748 417.848 137.883 417.254 138.153C416.66 138.405 416.201 138.774 415.877 139.26C415.553 139.746 415.391 140.331 415.391 141.015C415.391 141.681 415.553 142.257 415.877 142.743C416.201 143.211 416.651 143.571 417.227 143.823C417.821 144.075 418.514 144.201 419.306 144.201Z" fill="#364153" fill-opacity="0.6"/>
<path d="M399.903 149.088C398.571 149.088 397.356 148.8 396.258 148.224C395.178 147.63 394.314 146.811 393.666 145.767C393.036 144.705 392.721 143.481 392.721 142.095C392.721 140.673 393.045 139.44 393.693 138.396C394.341 137.352 395.214 136.542 396.312 135.966C397.428 135.372 398.688 135.075 400.092 135.075C401.64 135.075 402.882 135.39 403.818 136.02C404.772 136.632 405.465 137.469 405.897 138.531C406.329 139.593 406.545 140.781 406.545 142.095C406.545 142.887 406.419 143.697 406.167 144.525C405.915 145.335 405.528 146.091 405.006 146.793C404.484 147.477 403.8 148.035 402.954 148.467C402.108 148.881 401.091 149.088 399.903 149.088ZM401.037 146.388C402.099 146.388 403.017 146.208 403.791 145.848C404.565 145.488 405.159 144.984 405.573 144.336C405.987 143.688 406.194 142.941 406.194 142.095C406.194 141.177 405.978 140.403 405.546 139.773C405.132 139.125 404.538 138.639 403.764 138.315C403.008 137.973 402.099 137.802 401.037 137.802C399.543 137.802 398.382 138.198 397.554 138.99C396.726 139.764 396.312 140.799 396.312 142.095C396.312 142.959 396.51 143.715 396.906 144.363C397.302 144.993 397.851 145.488 398.553 145.848C399.273 146.208 400.101 146.388 401.037 146.388ZM406.194 135.372H409.704V148.791H406.437C406.437 148.791 406.41 148.62 406.356 148.278C406.32 147.918 406.284 147.468 406.248 146.928C406.212 146.388 406.194 145.857 406.194 145.335V135.372Z" fill="#364153" fill-opacity="0.6"/>
<path d="M363.211 135.372H366.721V148.791H363.211V135.372ZM372.958 135.075C373.786 135.075 374.551 135.183 375.253 135.399C375.955 135.615 376.567 135.948 377.089 136.398C377.611 136.848 378.016 137.424 378.304 138.126C378.592 138.81 378.736 139.629 378.736 140.583V148.791H375.226V141.204C375.226 140.07 374.947 139.242 374.389 138.72C373.849 138.18 372.958 137.91 371.716 137.91C370.78 137.91 369.934 138.09 369.178 138.45C368.422 138.81 367.81 139.269 367.342 139.827C366.874 140.367 366.604 140.934 366.532 141.528L366.505 140.151C366.595 139.521 366.802 138.909 367.126 138.315C367.45 137.721 367.882 137.181 368.422 136.695C368.98 136.191 369.637 135.795 370.393 135.507C371.149 135.219 372.004 135.075 372.958 135.075ZM384.649 135.075C385.477 135.075 386.242 135.183 386.944 135.399C387.646 135.615 388.258 135.948 388.78 136.398C389.302 136.848 389.707 137.424 389.995 138.126C390.301 138.81 390.454 139.629 390.454 140.583V148.791H386.944V141.204C386.944 140.07 386.665 139.242 386.107 138.72C385.549 138.18 384.649 137.91 383.407 137.91C382.471 137.91 381.625 138.09 380.869 138.45C380.113 138.81 379.501 139.269 379.033 139.827C378.565 140.367 378.304 140.934 378.25 141.528L378.196 140.07C378.286 139.476 378.502 138.882 378.844 138.288C379.186 137.694 379.636 137.154 380.194 136.668C380.752 136.182 381.4 135.795 382.138 135.507C382.894 135.219 383.731 135.075 384.649 135.075Z" fill="#364153" fill-opacity="0.6"/>
<path d="M355.699 131.323H359.29V148.792H355.699V131.323Z" fill="#364153" fill-opacity="0.6"/>
</svg>
