<svg width="735" height="91" viewBox="0 0 735 91" fill="none" xmlns="http://www.w3.org/2000/svg">
<path d="M359.088 44.224V31.424C359.088 29.5467 358.725 27.968 358 26.688C357.274 25.3653 355.994 24.384 354.16 23.744C352.368 23.104 349.829 22.784 346.544 22.784C344.538 22.784 342.597 23.0187 340.72 23.488C338.885 23.9147 337.242 24.4693 335.792 25.152C334.384 25.792 333.295 26.4533 332.527 27.136L332.464 24C332.634 23.1893 333.189 22.1227 334.128 20.8C335.109 19.4773 336.496 18.1333 338.288 16.768C340.08 15.4027 342.32 14.2507 345.008 13.312C347.696 12.3307 350.874 11.84 354.544 11.84C356.933 11.84 359.237 12.096 361.456 12.608C363.674 13.0773 365.637 13.8453 367.344 14.912C369.093 15.9787 370.48 17.408 371.504 19.2C372.528 20.9493 373.04 23.1253 373.04 25.728V44.224H359.088ZM319.216 44.224V0H333.168V44.224H319.216Z" fill="#101828"/>
<path d="M268.391 33.088H281.255C281.81 34.2826 282.898 35.136 284.519 35.648C286.183 36.16 288.53 36.416 291.559 36.416C293.82 36.416 295.506 36.288 296.615 36.032C297.724 35.776 298.45 35.4346 298.791 35.008C299.175 34.5386 299.367 34.0266 299.367 33.472C299.367 32.7466 298.983 32.2346 298.215 31.936C297.49 31.5946 296.252 31.36 294.503 31.232C292.796 31.104 290.45 31.0186 287.463 30.976C284.604 30.9333 282.023 30.7626 279.719 30.464C277.458 30.1226 275.516 29.6533 273.895 29.056C272.274 28.416 271.015 27.5413 270.119 26.432C269.266 25.3226 268.839 23.936 268.839 22.272C268.839 20.352 269.436 18.7093 270.631 17.344C271.868 15.9786 273.511 14.912 275.559 14.144C277.65 13.3333 280.06 12.7573 282.791 12.416C285.522 12.032 288.402 11.84 291.431 11.84C296.338 11.84 300.37 12.3733 303.527 13.44C306.684 14.5066 309.01 15.936 310.503 17.728C312.039 19.52 312.786 21.5466 312.743 23.808H300.263C299.794 22.6133 298.94 21.7813 297.703 21.312C296.466 20.8 294.375 20.544 291.431 20.544C288.615 20.544 286.567 20.8 285.287 21.312C284.007 21.7813 283.367 22.528 283.367 23.552C283.367 24.2346 283.687 24.768 284.327 25.152C285.01 25.4933 286.204 25.7493 287.911 25.92C289.66 26.048 292.178 26.1546 295.463 26.24C297.767 26.2826 300.007 26.432 302.183 26.688C304.402 26.9013 306.386 27.3066 308.135 27.904C309.884 28.4586 311.271 29.312 312.295 30.464C313.362 31.5733 313.895 33.1093 313.895 35.072C313.895 37.4186 312.978 39.3386 311.143 40.832C309.308 42.3253 306.727 43.4133 303.399 44.096C300.071 44.7786 296.124 45.12 291.559 45.12C287.548 45.12 284.156 44.8426 281.383 44.288C278.652 43.7333 276.412 43.008 274.663 42.112C272.914 41.1733 271.548 40.1706 270.567 39.104C269.628 38.0373 269.01 36.9706 268.711 35.904C268.412 34.8373 268.306 33.8986 268.391 33.088Z" fill="#101828"/>
<path d="M236.705 45.12C230.475 45.12 225.249 44.5653 221.025 43.456C216.801 42.304 213.622 40.512 211.489 38.08C209.355 35.648 208.289 32.4693 208.289 28.544C208.289 24.6613 209.355 21.504 211.489 19.072C213.622 16.5973 216.801 14.784 221.025 13.632C225.249 12.4373 230.475 11.84 236.705 11.84C242.891 11.84 248.054 12.4373 252.193 13.632C256.374 14.784 259.51 16.5973 261.601 19.072C263.734 21.504 264.801 24.6613 264.801 28.544C264.801 32.4693 263.734 35.648 261.601 38.08C259.51 40.512 256.374 42.304 252.193 43.456C248.054 44.5653 242.891 45.12 236.705 45.12ZM236.705 36.416C239.649 36.416 242.145 36.1386 244.193 35.584C246.283 34.9866 247.862 34.112 248.929 32.96C250.038 31.7653 250.593 30.2933 250.593 28.544C250.593 26.8373 250.059 25.3866 248.993 24.192C247.926 22.9973 246.347 22.1013 244.257 21.504C242.209 20.864 239.691 20.544 236.705 20.544C233.718 20.544 231.158 20.864 229.025 21.504C226.934 22.1013 225.334 22.9973 224.225 24.192C223.115 25.344 222.561 26.7946 222.561 28.544C222.561 30.2933 223.094 31.7653 224.161 32.96C225.27 34.112 226.87 34.9866 228.961 35.584C231.094 36.1386 233.675 36.416 236.705 36.416Z" fill="#101828"/>
<path d="M176.282 45.12C170.053 45.12 164.826 44.5653 160.602 43.456C156.378 42.304 153.199 40.512 151.066 38.08C148.933 35.648 147.866 32.4693 147.866 28.544C147.866 24.6613 148.933 21.504 151.066 19.072C153.199 16.5973 156.378 14.784 160.602 13.632C164.826 12.4373 170.053 11.84 176.282 11.84C182.469 11.84 187.631 12.4373 191.77 13.632C195.951 14.784 199.087 16.5973 201.178 19.072C203.311 21.504 204.378 24.6613 204.378 28.544C204.378 32.4693 203.311 35.648 201.178 38.08C199.087 40.512 195.951 42.304 191.77 43.456C187.631 44.5653 182.469 45.12 176.282 45.12ZM176.282 36.416C179.226 36.416 181.722 36.1386 183.77 35.584C185.861 34.9866 187.439 34.112 188.506 32.96C189.615 31.7653 190.17 30.2933 190.17 28.544C190.17 26.8373 189.637 25.3866 188.57 24.192C187.503 22.9973 185.925 22.1013 183.834 21.504C181.786 20.864 179.269 20.544 176.282 20.544C173.295 20.544 170.735 20.864 168.602 21.504C166.511 22.1013 164.911 22.9973 163.802 24.192C162.693 25.344 162.138 26.7946 162.138 28.544C162.138 30.2933 162.671 31.7653 163.738 32.96C164.847 34.112 166.447 34.9866 168.538 35.584C170.671 36.1386 173.253 36.416 176.282 36.416Z" fill="#101828"/>
<path d="M50.213 12.8H64.165V44.224H50.213V12.8ZM85.541 11.84C87.973 11.84 90.2769 12.1173 92.4529 12.672C94.6716 13.184 96.6343 14.0586 98.341 15.296C100.09 16.5333 101.477 18.2186 102.501 20.352C103.525 22.4426 104.037 25.0666 104.037 28.224V44.224H90.085V30.016C90.085 26.944 89.2956 24.7466 87.717 23.424C86.1383 22.0586 83.301 21.376 79.205 21.376C76.9436 21.376 74.7676 21.6746 72.677 22.272C70.5863 22.8693 68.7516 23.5733 67.173 24.384C65.5943 25.1946 64.3996 26.0266 63.589 26.88L63.461 24.256C63.6316 23.36 64.1863 22.208 65.125 20.8C66.1063 19.392 67.493 18.0266 69.285 16.704C71.077 15.3386 73.317 14.1866 76.005 13.248C78.693 12.3093 81.8716 11.84 85.541 11.84ZM124.709 11.84C127.098 11.84 129.402 12.1173 131.621 12.672C133.84 13.184 135.802 14.0586 137.509 15.296C139.258 16.5333 140.645 18.2186 141.669 20.352C142.693 22.4426 143.205 25.0666 143.205 28.224V44.224H129.253V30.016C129.253 26.944 128.442 24.7466 126.821 23.424C125.242 22.0586 122.426 21.376 118.373 21.376C116.069 21.376 113.872 21.6746 111.781 22.272C109.733 22.8693 107.898 23.5733 106.277 24.384C104.698 25.1946 103.504 26.0266 102.693 26.88L102.565 23.68C102.736 22.912 103.354 21.888 104.421 20.608C105.488 19.2853 106.96 17.9626 108.837 16.64C110.714 15.3173 112.976 14.1866 115.621 13.248C118.309 12.3093 121.338 11.84 124.709 11.84Z" fill="#101828"/>
<path d="M0.0284445 33.088H12.8924C13.4471 34.2826 14.5351 35.136 16.1564 35.648C17.8204 36.16 20.1671 36.416 23.1964 36.416C25.4578 36.416 27.1431 36.288 28.2524 36.032C29.3618 35.776 30.0871 35.4346 30.4284 35.008C30.8124 34.5386 31.0044 34.0266 31.0044 33.472C31.0044 32.7466 30.6204 32.2346 29.8524 31.936C29.1271 31.5946 27.8898 31.36 26.1404 31.232C24.4338 31.104 22.0871 31.0186 19.1004 30.976C16.2418 30.9333 13.6604 30.7626 11.3564 30.464C9.09511 30.1226 7.15378 29.6533 5.53244 29.056C3.91111 28.416 2.65244 27.5413 1.75644 26.432C0.903111 25.3226 0.476444 23.936 0.476444 22.272C0.476444 20.352 1.07378 18.7093 2.26844 17.344C3.50578 15.9786 5.14844 14.912 7.19644 14.144C9.28711 13.3333 11.6978 12.7573 14.4284 12.416C17.1591 12.032 20.0391 11.84 23.0684 11.84C27.9751 11.84 32.0071 12.3733 35.1644 13.44C38.3218 14.5066 40.6471 15.936 42.1404 17.728C43.6764 19.52 44.4231 21.5466 44.3804 23.808H31.9004C31.4311 22.6133 30.5778 21.7813 29.3404 21.312C28.1031 20.8 26.0124 20.544 23.0684 20.544C20.2524 20.544 18.2044 20.8 16.9244 21.312C15.6444 21.7813 15.0044 22.528 15.0044 23.552C15.0044 24.2346 15.3244 24.768 15.9644 25.152C16.6471 25.4933 17.8418 25.7493 19.5484 25.92C21.2978 26.048 23.8151 26.1546 27.1004 26.24C29.4044 26.2826 31.6444 26.432 33.8204 26.688C36.0391 26.9013 38.0231 27.3066 39.7724 27.904C41.5218 28.4586 42.9084 29.312 43.9324 30.464C44.9991 31.5733 45.5324 33.1093 45.5324 35.072C45.5324 37.4186 44.6151 39.3386 42.7804 40.832C40.9458 42.3253 38.3644 43.4133 35.0364 44.096C31.7084 44.7786 27.7618 45.12 23.1964 45.12C19.1858 45.12 15.7938 44.8426 13.0204 44.288C10.2898 43.7333 8.04978 43.008 6.30045 42.112C4.55111 41.1733 3.18578 40.1706 2.20444 39.104C1.26578 38.0373 0.647111 36.9706 0.348444 35.904C0.0497777 34.8373 -0.0568889 33.8986 0.0284445 33.088Z" fill="#101828"/>
<path d="M674.266 7.104H734.586V18.124H674.266V7.104ZM697.176 17.37H711.676V44.224H697.176V17.37Z" fill="#101828"/>
<path d="M611.007 30.594H626.841C627.112 31.406 627.904 32.102 629.219 32.682C630.534 33.2233 632.293 33.6487 634.497 33.958C636.74 34.2287 639.33 34.364 642.269 34.364C645.169 34.364 647.45 34.2867 649.113 34.132C650.814 33.9387 652.013 33.6293 652.709 33.204C653.405 32.74 653.753 32.1213 653.753 31.348C653.753 30.6133 653.192 30.0527 652.071 29.666C650.95 29.2407 648.958 28.9507 646.097 28.796C643.236 28.6413 639.214 28.564 634.033 28.564C630.166 28.564 626.822 28.39 623.999 28.042C621.215 27.6553 618.914 27.0753 617.097 26.302C615.318 25.49 614.004 24.4847 613.153 23.286C612.302 22.0487 611.877 20.5793 611.877 18.878C611.877 15.9393 612.863 13.5227 614.835 11.628C616.846 9.69465 619.862 8.26398 623.883 7.33599C627.943 6.36932 633.008 5.88599 639.079 5.88599C647.972 5.88599 654.758 7.18132 659.437 9.77199C664.154 12.324 666.513 16.0167 666.513 20.85H651.491C651.298 19.574 650.099 18.6073 647.895 17.95C645.691 17.254 642.559 16.906 638.499 16.906C634.478 16.906 631.481 17.138 629.509 17.602C627.576 18.066 626.609 18.8587 626.609 19.98C626.609 20.56 626.88 21.024 627.421 21.372C627.962 21.72 628.89 22.01 630.205 22.242C631.558 22.4353 633.453 22.5707 635.889 22.648C638.325 22.7253 641.418 22.764 645.169 22.764C649.306 22.764 652.825 22.9767 655.725 23.402C658.625 23.7887 660.964 24.388 662.743 25.2C664.56 26.012 665.875 27.056 666.687 28.332C667.499 29.5693 667.905 31.0387 667.905 32.74C667.905 35.6787 666.977 38.076 665.121 39.932C663.265 41.788 660.326 43.1607 656.305 44.05C652.284 44.9393 647.025 45.384 640.529 45.384C636.856 45.384 633.472 45.1713 630.379 44.746C627.324 44.3207 624.598 43.702 622.201 42.89C619.804 42.0393 617.774 41.0147 616.111 39.816C614.448 38.5787 613.172 37.206 612.283 35.698C611.432 34.1513 611.007 32.45 611.007 30.594Z" fill="#101828"/>
<path d="M567.503 45.384C559.073 45.384 552.287 44.6493 547.145 43.18C542.002 41.672 538.251 39.468 535.893 36.568C533.573 33.6293 532.413 29.9946 532.413 25.664C532.413 21.3333 533.573 17.718 535.893 14.818C538.251 11.8793 542.002 9.6753 547.145 8.20597C552.287 6.69797 559.073 5.94397 567.503 5.94397C575.932 5.94397 582.718 6.69797 587.861 8.20597C593.003 9.6753 596.735 11.8793 599.055 14.818C601.413 17.718 602.593 21.3333 602.593 25.664C602.593 29.9946 601.413 33.6293 599.055 36.568C596.735 39.468 593.003 41.672 587.861 43.18C582.718 44.6493 575.932 45.384 567.503 45.384ZM567.503 34.364C571.485 34.364 574.927 34.132 577.827 33.668C580.727 33.1653 582.969 32.2953 584.555 31.058C586.14 29.782 586.933 27.984 586.933 25.664C586.933 23.344 586.14 21.5653 584.555 20.328C582.969 19.052 580.727 18.182 577.827 17.718C574.927 17.2153 571.485 16.964 567.503 16.964C563.52 16.964 560.021 17.2153 557.005 17.718C554.027 18.182 551.688 19.052 549.987 20.328C548.324 21.5653 547.493 23.344 547.493 25.664C547.493 27.984 548.324 29.782 549.987 31.058C551.688 32.2953 554.027 33.1653 557.005 33.668C560.021 34.132 563.52 34.364 567.503 34.364Z" fill="#101828"/>
<path d="M489.198 45.384C480.769 45.384 473.983 44.6493 468.84 43.18C463.697 41.672 459.947 39.468 457.588 36.568C455.268 33.6293 454.108 29.9946 454.108 25.664C454.108 21.3333 455.268 17.718 457.588 14.818C459.947 11.8793 463.697 9.6753 468.84 8.20597C473.983 6.69797 480.769 5.94397 489.198 5.94397C497.627 5.94397 504.413 6.69797 509.556 8.20597C514.699 9.6753 518.43 11.8793 520.75 14.818C523.109 17.718 524.288 21.3333 524.288 25.664C524.288 29.9946 523.109 33.6293 520.75 36.568C518.43 39.468 514.699 41.672 509.556 43.18C504.413 44.6493 497.627 45.384 489.198 45.384ZM489.198 34.364C493.181 34.364 496.622 34.132 499.522 33.668C502.422 33.1653 504.665 32.2953 506.25 31.058C507.835 29.782 508.628 27.984 508.628 25.664C508.628 23.344 507.835 21.5653 506.25 20.328C504.665 19.052 502.422 18.182 499.522 17.718C496.622 17.2153 493.181 16.964 489.198 16.964C485.215 16.964 481.716 17.2153 478.7 17.718C475.723 18.182 473.383 19.052 471.682 20.328C470.019 21.5653 469.188 23.344 469.188 25.664C469.188 27.984 470.019 29.782 471.682 31.058C473.383 32.2953 475.723 33.1653 478.7 33.668C481.716 34.132 485.215 34.364 489.198 34.364Z" fill="#101828"/>
<path d="M384.529 44.224V7.104H421.069C428.57 7.104 434.099 7.83867 437.657 9.308C441.214 10.7773 442.993 13.3293 442.993 16.964C442.993 19.284 442.219 21.0627 440.673 22.3C439.165 23.5373 436.98 24.4073 434.119 24.91C431.296 25.374 427.893 25.664 423.911 25.78L424.375 25.316C427.275 25.316 429.962 25.3933 432.437 25.548C434.911 25.7027 437.077 26.0507 438.933 26.592C440.789 27.1333 442.239 27.9647 443.283 29.086C444.327 30.2073 444.848 31.754 444.848 33.726C444.848 36.1233 443.998 38.0953 442.297 39.642C440.595 41.1887 438.179 42.3487 435.047 43.122C431.915 43.8567 428.222 44.224 423.969 44.224H384.529ZM399.029 33.32H423.969C426.018 33.32 427.487 33.1267 428.377 32.74C429.305 32.3533 429.769 31.7347 429.769 30.884C429.769 30.304 429.556 29.84 429.131 29.492C428.744 29.144 428.125 28.8927 427.275 28.738C426.424 28.5447 425.322 28.448 423.969 28.448H399.029V33.32ZM399.029 22.88H421.533C423.582 22.88 425.051 22.6867 425.941 22.3C426.869 21.9133 427.333 21.2947 427.333 20.444C427.333 19.5547 426.869 18.936 425.941 18.588C425.051 18.2013 423.582 18.008 421.533 18.008H399.029V22.88Z" fill="#101828"/>
<path d="M601.085 71.805H604.595V85.224H601.085V71.805ZM610.832 71.508C611.66 71.508 612.425 71.616 613.127 71.832C613.829 72.048 614.441 72.381 614.963 72.831C615.485 73.281 615.89 73.857 616.178 74.559C616.466 75.243 616.61 76.062 616.61 77.016V85.224H613.1V77.637C613.1 76.503 612.821 75.675 612.263 75.153C611.723 74.613 610.832 74.343 609.59 74.343C608.654 74.343 607.808 74.523 607.052 74.883C606.296 75.243 605.684 75.702 605.216 76.26C604.748 76.8 604.478 77.367 604.406 77.961L604.379 76.584C604.469 75.954 604.676 75.342 605 74.748C605.324 74.154 605.756 73.614 606.296 73.128C606.854 72.624 607.511 72.228 608.267 71.94C609.023 71.652 609.878 71.508 610.832 71.508Z" fill="#101828" fill-opacity="0.6"/>
<path d="M590.255 85.548C588.563 85.548 587.069 85.278 585.773 84.738C584.495 84.198 583.496 83.415 582.776 82.389C582.056 81.345 581.696 80.067 581.696 78.555C581.696 77.043 582.056 75.765 582.776 74.721C583.496 73.659 584.495 72.858 585.773 72.318C587.069 71.778 588.563 71.508 590.255 71.508C591.947 71.508 593.423 71.778 594.683 72.318C595.961 72.858 596.96 73.659 597.68 74.721C598.4 75.765 598.76 77.043 598.76 78.555C598.76 80.067 598.4 81.345 597.68 82.389C596.96 83.415 595.961 84.198 594.683 84.738C593.423 85.278 591.947 85.548 590.255 85.548ZM590.255 82.848C591.191 82.848 592.028 82.686 592.766 82.362C593.522 82.02 594.116 81.534 594.548 80.904C594.98 80.256 595.196 79.473 595.196 78.555C595.196 77.637 594.98 76.854 594.548 76.206C594.116 75.54 593.531 75.036 592.793 74.694C592.055 74.352 591.209 74.181 590.255 74.181C589.319 74.181 588.473 74.352 587.717 74.694C586.961 75.036 586.358 75.531 585.908 76.179C585.476 76.827 585.26 77.619 585.26 78.555C585.26 79.473 585.476 80.256 585.908 80.904C586.34 81.534 586.934 82.02 587.69 82.362C588.446 82.686 589.301 82.848 590.255 82.848Z" fill="#101828" fill-opacity="0.6"/>
<path d="M579.413 65.919V68.997H575.336V65.919H579.413ZM575.606 71.805H579.116V85.224H575.606V71.805Z" fill="#101828" fill-opacity="0.6"/>
<path d="M563.008 71.805H573.43V74.532H563.008V71.805ZM566.464 68.133H569.974V85.224H566.464V68.133Z" fill="#101828" fill-opacity="0.6"/>
<path d="M551.245 85.521C549.913 85.521 548.698 85.233 547.6 84.657C546.52 84.063 545.656 83.244 545.008 82.2C544.378 81.138 544.063 79.914 544.063 78.528C544.063 77.106 544.387 75.873 545.035 74.829C545.683 73.785 546.556 72.975 547.654 72.399C548.77 71.805 550.03 71.508 551.434 71.508C552.982 71.508 554.224 71.823 555.16 72.453C556.114 73.065 556.807 73.902 557.239 74.964C557.671 76.026 557.887 77.214 557.887 78.528C557.887 79.32 557.761 80.13 557.509 80.958C557.257 81.768 556.87 82.524 556.348 83.226C555.826 83.91 555.142 84.468 554.296 84.9C553.45 85.314 552.433 85.521 551.245 85.521ZM552.379 82.821C553.441 82.821 554.359 82.641 555.133 82.281C555.907 81.921 556.501 81.417 556.915 80.769C557.329 80.121 557.536 79.374 557.536 78.528C557.536 77.61 557.32 76.836 556.888 76.206C556.474 75.558 555.88 75.072 555.106 74.748C554.35 74.406 553.441 74.235 552.379 74.235C550.885 74.235 549.724 74.631 548.896 75.423C548.068 76.197 547.654 77.232 547.654 78.528C547.654 79.392 547.852 80.148 548.248 80.796C548.644 81.426 549.193 81.921 549.895 82.281C550.615 82.641 551.443 82.821 552.379 82.821ZM557.536 71.805H561.046V85.224H557.779C557.779 85.224 557.752 85.053 557.698 84.711C557.662 84.351 557.626 83.901 557.59 83.361C557.554 82.821 557.536 82.29 557.536 81.768V71.805Z" fill="#101828" fill-opacity="0.6"/>
<path d="M541.843 74.478L531.178 83.604L530.8 82.578H542.032V85.224H528.289V82.578L538.954 73.452L539.332 74.478H528.289V71.805H541.843V74.478Z" fill="#101828" fill-opacity="0.6"/>
<path d="M525.438 65.919V68.997H521.361V65.919H525.438ZM521.631 71.805H525.141V85.224H521.631V71.805Z" fill="#101828" fill-opacity="0.6"/>
<path d="M491.257 71.805H494.767V85.224H491.257V71.805ZM501.004 71.508C501.832 71.508 502.597 71.616 503.299 71.832C504.001 72.048 504.613 72.381 505.135 72.831C505.657 73.281 506.062 73.857 506.35 74.559C506.638 75.243 506.782 76.062 506.782 77.016V85.224H503.272V77.637C503.272 76.503 502.993 75.675 502.435 75.153C501.895 74.613 501.004 74.343 499.762 74.343C498.826 74.343 497.98 74.523 497.224 74.883C496.468 75.243 495.856 75.702 495.388 76.26C494.92 76.8 494.65 77.367 494.578 77.961L494.551 76.584C494.641 75.954 494.848 75.342 495.172 74.748C495.496 74.154 495.928 73.614 496.468 73.128C497.026 72.624 497.683 72.228 498.439 71.94C499.195 71.652 500.05 71.508 501.004 71.508ZM512.695 71.508C513.523 71.508 514.288 71.616 514.99 71.832C515.692 72.048 516.304 72.381 516.826 72.831C517.348 73.281 517.753 73.857 518.041 74.559C518.347 75.243 518.5 76.062 518.5 77.016V85.224H514.99V77.637C514.99 76.503 514.711 75.675 514.153 75.153C513.595 74.613 512.695 74.343 511.453 74.343C510.517 74.343 509.671 74.523 508.915 74.883C508.159 75.243 507.547 75.702 507.079 76.26C506.611 76.8 506.35 77.367 506.296 77.961L506.242 76.503C506.332 75.909 506.548 75.315 506.89 74.721C507.232 74.127 507.682 73.587 508.24 73.101C508.798 72.615 509.446 72.228 510.184 71.94C510.94 71.652 511.777 71.508 512.695 71.508Z" fill="#101828" fill-opacity="0.6"/>
<path d="M488.326 65.919V68.997H484.249V65.919H488.326ZM484.519 71.805H488.029V85.224H484.519V71.805Z" fill="#101828" fill-opacity="0.6"/>
<path d="M471.921 71.805H482.343V74.532H471.921V71.805ZM475.377 68.133H478.887V85.224H475.377V68.133Z" fill="#101828" fill-opacity="0.6"/>
<path d="M463.372 85.548C462.184 85.548 461.167 85.341 460.321 84.927C459.493 84.495 458.818 83.937 458.296 83.253C457.774 82.551 457.387 81.786 457.135 80.958C456.883 80.13 456.757 79.32 456.757 78.528C456.757 77.538 456.874 76.62 457.108 75.774C457.36 74.928 457.747 74.19 458.269 73.56C458.791 72.912 459.466 72.408 460.294 72.048C461.14 71.688 462.166 71.508 463.372 71.508C464.722 71.508 465.937 71.805 467.017 72.399C468.097 72.993 468.952 73.821 469.582 74.883C470.23 75.927 470.554 77.142 470.554 78.528C470.554 79.95 470.23 81.192 469.582 82.254C468.934 83.298 468.07 84.108 466.99 84.684C465.91 85.26 464.704 85.548 463.372 85.548ZM462.238 82.821C463.192 82.821 464.02 82.641 464.722 82.281C465.442 81.921 465.991 81.426 466.369 80.796C466.765 80.148 466.963 79.392 466.963 78.528C466.963 77.232 466.549 76.188 465.721 75.396C464.911 74.604 463.75 74.208 462.238 74.208C461.284 74.208 460.411 74.379 459.619 74.721C458.845 75.063 458.233 75.558 457.783 76.206C457.333 76.836 457.108 77.61 457.108 78.528C457.108 79.392 457.315 80.148 457.729 80.796C458.143 81.426 458.737 81.921 459.511 82.281C460.285 82.641 461.194 82.821 462.238 82.821ZM453.598 71.805H456.946L457.108 75.369V90.624H453.598V71.805Z" fill="#101828" fill-opacity="0.6"/>
<path d="M439.778 85.575C437.456 85.575 435.467 85.215 433.811 84.495C432.173 83.757 430.913 82.713 430.031 81.363C429.167 80.013 428.735 78.393 428.735 76.503C428.735 74.595 429.167 72.966 430.031 71.616C430.913 70.266 432.173 69.231 433.811 68.511C435.467 67.773 437.456 67.404 439.778 67.404C442.118 67.404 444.107 67.773 445.745 68.511C447.383 69.231 448.634 70.266 449.498 71.616C450.38 72.966 450.821 74.595 450.821 76.503C450.821 78.393 450.38 80.013 449.498 81.363C448.634 82.713 447.383 83.757 445.745 84.495C444.107 85.215 442.118 85.575 439.778 85.575ZM439.778 82.47C441.218 82.47 442.478 82.254 443.558 81.822C444.656 81.39 445.511 80.733 446.123 79.851C446.753 78.969 447.068 77.853 447.068 76.503C447.068 75.153 446.753 74.037 446.123 73.155C445.511 72.273 444.656 71.616 443.558 71.184C442.478 70.734 441.218 70.509 439.778 70.509C438.356 70.509 437.087 70.734 435.971 71.184C434.855 71.616 433.982 72.273 433.352 73.155C432.722 74.037 432.407 75.153 432.407 76.503C432.407 77.853 432.722 78.969 433.352 79.851C433.982 80.733 434.855 81.39 435.971 81.822C437.087 82.254 438.356 82.47 439.778 82.47Z" fill="#101828" fill-opacity="0.6"/>
<path d="M407.573 76.638H419.993V79.203H407.573V76.638ZM415.241 72.831V83.037H412.325V72.831H415.241Z" fill="#101828" fill-opacity="0.6"/>
<path d="M383.15 71.805H386.66V85.224H383.15V71.805ZM392.897 71.508C393.725 71.508 394.49 71.616 395.192 71.832C395.894 72.048 396.506 72.381 397.028 72.831C397.55 73.281 397.955 73.857 398.243 74.559C398.531 75.243 398.675 76.062 398.675 77.016V85.224H395.165V77.637C395.165 76.503 394.886 75.675 394.328 75.153C393.788 74.613 392.897 74.343 391.655 74.343C390.719 74.343 389.873 74.523 389.117 74.883C388.361 75.243 387.749 75.702 387.281 76.26C386.813 76.8 386.543 77.367 386.471 77.961L386.444 76.584C386.534 75.954 386.741 75.342 387.065 74.748C387.389 74.154 387.821 73.614 388.361 73.128C388.919 72.624 389.576 72.228 390.332 71.94C391.088 71.652 391.943 71.508 392.897 71.508Z" fill="#101828" fill-opacity="0.6"/>
<path d="M372.32 85.548C370.628 85.548 369.134 85.278 367.838 84.738C366.56 84.198 365.561 83.415 364.841 82.389C364.121 81.345 363.761 80.067 363.761 78.555C363.761 77.043 364.121 75.765 364.841 74.721C365.561 73.659 366.56 72.858 367.838 72.318C369.134 71.778 370.628 71.508 372.32 71.508C374.012 71.508 375.488 71.778 376.748 72.318C378.026 72.858 379.025 73.659 379.745 74.721C380.465 75.765 380.825 77.043 380.825 78.555C380.825 80.067 380.465 81.345 379.745 82.389C379.025 83.415 378.026 84.198 376.748 84.738C375.488 85.278 374.012 85.548 372.32 85.548ZM372.32 82.848C373.256 82.848 374.093 82.686 374.831 82.362C375.587 82.02 376.181 81.534 376.613 80.904C377.045 80.256 377.261 79.473 377.261 78.555C377.261 77.637 377.045 76.854 376.613 76.206C376.181 75.54 375.596 75.036 374.858 74.694C374.12 74.352 373.274 74.181 372.32 74.181C371.384 74.181 370.538 74.352 369.782 74.694C369.026 75.036 368.423 75.531 367.973 76.179C367.541 76.827 367.325 77.619 367.325 78.555C367.325 79.473 367.541 80.256 367.973 80.904C368.405 81.534 368.999 82.02 369.755 82.362C370.511 82.686 371.366 82.848 372.32 82.848Z" fill="#101828" fill-opacity="0.6"/>
<path d="M361.477 65.919V68.997H357.4V65.919H361.477ZM357.67 71.805H361.18V85.224H357.67V71.805Z" fill="#101828" fill-opacity="0.6"/>
<path d="M341.944 80.769H345.184C345.382 81.381 345.787 81.885 346.399 82.281C347.029 82.659 347.848 82.848 348.856 82.848C349.54 82.848 350.071 82.785 350.449 82.659C350.827 82.533 351.088 82.353 351.232 82.119C351.376 81.867 351.448 81.588 351.448 81.282C351.448 80.904 351.331 80.616 351.097 80.418C350.863 80.202 350.503 80.031 350.017 79.905C349.531 79.779 348.91 79.662 348.154 79.554C347.398 79.428 346.669 79.275 345.967 79.095C345.265 78.915 344.644 78.681 344.104 78.393C343.564 78.087 343.132 77.709 342.808 77.259C342.502 76.791 342.349 76.224 342.349 75.558C342.349 74.91 342.502 74.334 342.808 73.83C343.132 73.326 343.573 72.903 344.131 72.561C344.707 72.219 345.373 71.958 346.129 71.778C346.903 71.598 347.731 71.508 348.613 71.508C349.945 71.508 351.052 71.706 351.934 72.102C352.816 72.48 353.473 73.02 353.905 73.722C354.355 74.406 354.58 75.198 354.58 76.098H351.475C351.331 75.432 351.043 74.955 350.611 74.667C350.179 74.361 349.513 74.208 348.613 74.208C347.731 74.208 347.065 74.343 346.615 74.613C346.165 74.883 345.94 75.252 345.94 75.72C345.94 76.098 346.075 76.395 346.345 76.611C346.633 76.809 347.047 76.971 347.587 77.097C348.145 77.223 348.838 77.358 349.666 77.502C350.368 77.646 351.034 77.808 351.664 77.988C352.312 78.168 352.888 78.402 353.392 78.69C353.896 78.96 354.292 79.329 354.58 79.797C354.886 80.247 355.039 80.823 355.039 81.525C355.039 82.389 354.787 83.118 354.283 83.712C353.797 84.306 353.095 84.765 352.177 85.089C351.259 85.395 350.161 85.548 348.883 85.548C347.749 85.548 346.768 85.431 345.94 85.197C345.13 84.945 344.455 84.63 343.915 84.252C343.375 83.856 342.952 83.442 342.646 83.01C342.358 82.56 342.16 82.137 342.052 81.741C341.944 81.345 341.908 81.021 341.944 80.769Z" fill="#101828" fill-opacity="0.6"/>
<path d="M326.974 80.769H330.214C330.412 81.381 330.817 81.885 331.429 82.281C332.059 82.659 332.878 82.848 333.886 82.848C334.57 82.848 335.101 82.785 335.479 82.659C335.857 82.533 336.118 82.353 336.262 82.119C336.406 81.867 336.478 81.588 336.478 81.282C336.478 80.904 336.361 80.616 336.127 80.418C335.893 80.202 335.533 80.031 335.047 79.905C334.561 79.779 333.94 79.662 333.184 79.554C332.428 79.428 331.699 79.275 330.997 79.095C330.295 78.915 329.674 78.681 329.134 78.393C328.594 78.087 328.162 77.709 327.838 77.259C327.532 76.791 327.379 76.224 327.379 75.558C327.379 74.91 327.532 74.334 327.838 73.83C328.162 73.326 328.603 72.903 329.161 72.561C329.737 72.219 330.403 71.958 331.159 71.778C331.933 71.598 332.761 71.508 333.643 71.508C334.975 71.508 336.082 71.706 336.964 72.102C337.846 72.48 338.503 73.02 338.935 73.722C339.385 74.406 339.61 75.198 339.61 76.098H336.505C336.361 75.432 336.073 74.955 335.641 74.667C335.209 74.361 334.543 74.208 333.643 74.208C332.761 74.208 332.095 74.343 331.645 74.613C331.195 74.883 330.97 75.252 330.97 75.72C330.97 76.098 331.105 76.395 331.375 76.611C331.663 76.809 332.077 76.971 332.617 77.097C333.175 77.223 333.868 77.358 334.696 77.502C335.398 77.646 336.064 77.808 336.694 77.988C337.342 78.168 337.918 78.402 338.422 78.69C338.926 78.96 339.322 79.329 339.61 79.797C339.916 80.247 340.069 80.823 340.069 81.525C340.069 82.389 339.817 83.118 339.313 83.712C338.827 84.306 338.125 84.765 337.207 85.089C336.289 85.395 335.191 85.548 333.913 85.548C332.779 85.548 331.798 85.431 330.97 85.197C330.16 84.945 329.485 84.63 328.945 84.252C328.405 83.856 327.982 83.442 327.676 83.01C327.388 82.56 327.19 82.137 327.082 81.741C326.974 81.345 326.938 81.021 326.974 80.769Z" fill="#101828" fill-opacity="0.6"/>
<path d="M321.716 80.769H325.118C324.974 81.687 324.587 82.506 323.957 83.226C323.345 83.946 322.508 84.513 321.446 84.927C320.384 85.341 319.088 85.548 317.558 85.548C315.848 85.548 314.336 85.278 313.022 84.738C311.708 84.18 310.682 83.379 309.944 82.335C309.206 81.291 308.837 80.031 308.837 78.555C308.837 77.079 309.197 75.819 309.917 74.775C310.637 73.713 311.636 72.903 312.914 72.345C314.21 71.787 315.722 71.508 317.45 71.508C319.214 71.508 320.681 71.787 321.851 72.345C323.021 72.903 323.885 73.749 324.443 74.883C325.019 75.999 325.262 77.43 325.172 79.176H312.374C312.464 79.86 312.716 80.481 313.13 81.039C313.562 81.597 314.138 82.038 314.858 82.362C315.596 82.686 316.469 82.848 317.477 82.848C318.593 82.848 319.52 82.659 320.258 82.281C321.014 81.885 321.5 81.381 321.716 80.769ZM317.288 74.181C315.992 74.181 314.939 74.469 314.129 75.045C313.319 75.603 312.797 76.296 312.563 77.124H321.689C321.599 76.224 321.167 75.513 320.393 74.991C319.637 74.451 318.602 74.181 317.288 74.181Z" fill="#101828" fill-opacity="0.6"/>
<path d="M298.918 71.805H302.428V85.224H298.918V71.805ZM307.585 74.694C306.577 74.694 305.704 74.892 304.966 75.288C304.228 75.666 303.634 76.134 303.184 76.692C302.734 77.25 302.419 77.79 302.239 78.312L302.212 76.827C302.23 76.611 302.302 76.296 302.428 75.882C302.554 75.45 302.743 74.991 302.995 74.505C303.247 74.001 303.58 73.524 303.994 73.074C304.408 72.606 304.912 72.228 305.506 71.94C306.1 71.652 306.793 71.508 307.585 71.508V74.694Z" fill="#101828" fill-opacity="0.6"/>
<path d="M289.424 85.548C288.236 85.548 287.219 85.341 286.373 84.927C285.545 84.495 284.87 83.937 284.348 83.253C283.826 82.551 283.439 81.786 283.187 80.958C282.935 80.13 282.809 79.32 282.809 78.528C282.809 77.538 282.926 76.62 283.16 75.774C283.412 74.928 283.799 74.19 284.321 73.56C284.843 72.912 285.518 72.408 286.346 72.048C287.192 71.688 288.218 71.508 289.424 71.508C290.774 71.508 291.989 71.805 293.069 72.399C294.149 72.993 295.004 73.821 295.634 74.883C296.282 75.927 296.606 77.142 296.606 78.528C296.606 79.95 296.282 81.192 295.634 82.254C294.986 83.298 294.122 84.108 293.042 84.684C291.962 85.26 290.756 85.548 289.424 85.548ZM288.29 82.821C289.244 82.821 290.072 82.641 290.774 82.281C291.494 81.921 292.043 81.426 292.421 80.796C292.817 80.148 293.015 79.392 293.015 78.528C293.015 77.232 292.601 76.188 291.773 75.396C290.963 74.604 289.802 74.208 288.29 74.208C287.336 74.208 286.463 74.379 285.671 74.721C284.897 75.063 284.285 75.558 283.835 76.206C283.385 76.836 283.16 77.61 283.16 78.528C283.16 79.392 283.367 80.148 283.781 80.796C284.195 81.426 284.789 81.921 285.563 82.281C286.337 82.641 287.246 82.821 288.29 82.821ZM279.65 71.805H282.998L283.16 75.369V90.624H279.65V71.805Z" fill="#101828" fill-opacity="0.6"/>
<path d="M249.492 71.805H253.002V85.224H249.492V71.805ZM259.239 71.508C260.067 71.508 260.832 71.616 261.534 71.832C262.236 72.048 262.848 72.381 263.37 72.831C263.892 73.281 264.297 73.857 264.585 74.559C264.873 75.243 265.017 76.062 265.017 77.016V85.224H261.507V77.637C261.507 76.503 261.228 75.675 260.67 75.153C260.13 74.613 259.239 74.343 257.997 74.343C257.061 74.343 256.215 74.523 255.459 74.883C254.703 75.243 254.091 75.702 253.623 76.26C253.155 76.8 252.885 77.367 252.813 77.961L252.786 76.584C252.876 75.954 253.083 75.342 253.407 74.748C253.731 74.154 254.163 73.614 254.703 73.128C255.261 72.624 255.918 72.228 256.674 71.94C257.43 71.652 258.285 71.508 259.239 71.508ZM270.93 71.508C271.758 71.508 272.523 71.616 273.225 71.832C273.927 72.048 274.539 72.381 275.061 72.831C275.583 73.281 275.988 73.857 276.276 74.559C276.582 75.243 276.735 76.062 276.735 77.016V85.224H273.225V77.637C273.225 76.503 272.946 75.675 272.388 75.153C271.83 74.613 270.93 74.343 269.688 74.343C268.752 74.343 267.906 74.523 267.15 74.883C266.394 75.243 265.782 75.702 265.314 76.26C264.846 76.8 264.585 77.367 264.531 77.961L264.477 76.503C264.567 75.909 264.783 75.315 265.125 74.721C265.467 74.127 265.917 73.587 266.475 73.101C267.033 72.615 267.681 72.228 268.419 71.94C269.175 71.652 270.012 71.508 270.93 71.508Z" fill="#101828" fill-opacity="0.6"/>
<path d="M238.663 85.548C236.971 85.548 235.477 85.278 234.181 84.738C232.903 84.198 231.904 83.415 231.184 82.389C230.464 81.345 230.104 80.067 230.104 78.555C230.104 77.043 230.464 75.765 231.184 74.721C231.904 73.659 232.903 72.858 234.181 72.318C235.477 71.778 236.971 71.508 238.663 71.508C240.355 71.508 241.831 71.778 243.091 72.318C244.369 72.858 245.368 73.659 246.088 74.721C246.808 75.765 247.168 77.043 247.168 78.555C247.168 80.067 246.808 81.345 246.088 82.389C245.368 83.415 244.369 84.198 243.091 84.738C241.831 85.278 240.355 85.548 238.663 85.548ZM238.663 82.848C239.599 82.848 240.436 82.686 241.174 82.362C241.93 82.02 242.524 81.534 242.956 80.904C243.388 80.256 243.604 79.473 243.604 78.555C243.604 77.637 243.388 76.854 242.956 76.206C242.524 75.54 241.939 75.036 241.201 74.694C240.463 74.352 239.617 74.181 238.663 74.181C237.727 74.181 236.881 74.352 236.125 74.694C235.369 75.036 234.766 75.531 234.316 76.179C233.884 76.827 233.668 77.619 233.668 78.555C233.668 79.473 233.884 80.256 234.316 80.904C234.748 81.534 235.342 82.02 236.098 82.362C236.854 82.686 237.709 82.848 238.663 82.848Z" fill="#101828" fill-opacity="0.6"/>
<path d="M227.977 78.933C227.815 80.337 227.32 81.534 226.492 82.524C225.664 83.514 224.539 84.27 223.117 84.792C221.695 85.314 220.003 85.575 218.041 85.575C216.403 85.575 214.9 85.386 213.532 85.008C212.182 84.63 211.012 84.063 210.022 83.307C209.05 82.551 208.294 81.615 207.754 80.499C207.214 79.365 206.944 78.042 206.944 76.53C206.944 75.018 207.214 73.695 207.754 72.561C208.294 71.427 209.05 70.482 210.022 69.726C211.012 68.952 212.182 68.376 213.532 67.998C214.9 67.602 216.403 67.404 218.041 67.404C220.003 67.404 221.695 67.674 223.117 68.214C224.557 68.754 225.691 69.528 226.519 70.536C227.347 71.526 227.833 72.732 227.977 74.154H224.413C224.179 73.398 223.783 72.75 223.225 72.21C222.685 71.652 221.983 71.229 221.119 70.941C220.255 70.653 219.229 70.509 218.041 70.509C216.565 70.509 215.269 70.743 214.153 71.211C213.037 71.661 212.173 72.336 211.561 73.236C210.949 74.118 210.643 75.216 210.643 76.53C210.643 77.826 210.949 78.915 211.561 79.797C212.173 80.679 213.037 81.354 214.153 81.822C215.269 82.272 216.565 82.497 218.041 82.497C219.229 82.497 220.246 82.353 221.092 82.065C221.956 81.777 222.658 81.363 223.198 80.823C223.756 80.283 224.161 79.653 224.413 78.933H227.977Z" fill="#101828" fill-opacity="0.6"/>
<path d="M195.092 80.769H198.494C198.35 81.687 197.963 82.506 197.333 83.226C196.721 83.946 195.884 84.513 194.822 84.927C193.76 85.341 192.464 85.548 190.934 85.548C189.224 85.548 187.712 85.278 186.398 84.738C185.084 84.18 184.058 83.379 183.32 82.335C182.582 81.291 182.213 80.031 182.213 78.555C182.213 77.079 182.573 75.819 183.293 74.775C184.013 73.713 185.012 72.903 186.29 72.345C187.586 71.787 189.098 71.508 190.826 71.508C192.59 71.508 194.057 71.787 195.227 72.345C196.397 72.903 197.261 73.749 197.819 74.883C198.395 75.999 198.638 77.43 198.548 79.176H185.75C185.84 79.86 186.092 80.481 186.506 81.039C186.938 81.597 187.514 82.038 188.234 82.362C188.972 82.686 189.845 82.848 190.853 82.848C191.969 82.848 192.896 82.659 193.634 82.281C194.39 81.885 194.876 81.381 195.092 80.769ZM190.664 74.181C189.368 74.181 188.315 74.469 187.505 75.045C186.695 75.603 186.173 76.296 185.939 77.124H195.065C194.975 76.224 194.543 75.513 193.769 74.991C193.013 74.451 191.978 74.181 190.664 74.181Z" fill="#101828" fill-opacity="0.6"/>
<path d="M171.951 83.172C170.493 83.172 169.206 82.956 168.09 82.524C166.992 82.074 166.137 81.417 165.525 80.553C164.913 79.689 164.607 78.645 164.607 77.421C164.607 76.215 164.904 75.171 165.498 74.289C166.092 73.407 166.938 72.723 168.036 72.237C169.152 71.751 170.457 71.508 171.951 71.508C172.365 71.508 172.761 71.535 173.139 71.589C173.535 71.643 173.922 71.715 174.3 71.805L181.077 71.832V74.478C180.159 74.496 179.223 74.388 178.269 74.154C177.333 73.902 176.505 73.632 175.785 73.344L175.704 73.155C176.316 73.443 176.892 73.803 177.432 74.235C177.972 74.649 178.404 75.135 178.728 75.693C179.07 76.233 179.241 76.863 179.241 77.583C179.241 78.753 178.944 79.761 178.35 80.607C177.756 81.435 176.91 82.074 175.812 82.524C174.732 82.956 173.445 83.172 171.951 83.172ZM176.46 90.759V90.111C176.46 89.283 176.19 88.707 175.65 88.383C175.128 88.059 174.408 87.897 173.49 87.897H169.305C168.495 87.897 167.811 87.834 167.253 87.708C166.713 87.582 166.281 87.402 165.957 87.168C165.633 86.934 165.399 86.655 165.255 86.331C165.111 86.025 165.039 85.692 165.039 85.332C165.039 84.612 165.273 84.072 165.741 83.712C166.209 83.334 166.839 83.082 167.631 82.956C168.423 82.83 169.296 82.803 170.25 82.875L171.951 83.172C170.817 83.208 169.971 83.307 169.413 83.469C168.873 83.613 168.603 83.91 168.603 84.36C168.603 84.63 168.711 84.846 168.927 85.008C169.143 85.152 169.449 85.224 169.845 85.224H174.246C175.452 85.224 176.478 85.35 177.324 85.602C178.188 85.872 178.845 86.313 179.295 86.925C179.745 87.555 179.97 88.41 179.97 89.49V90.759H176.46ZM171.951 80.634C172.725 80.634 173.4 80.508 173.976 80.256C174.57 80.004 175.029 79.644 175.353 79.176C175.677 78.69 175.839 78.114 175.839 77.448C175.839 76.764 175.677 76.179 175.353 75.693C175.029 75.207 174.579 74.838 174.003 74.586C173.427 74.316 172.743 74.181 171.951 74.181C171.177 74.181 170.493 74.316 169.899 74.586C169.305 74.838 168.846 75.207 168.522 75.693C168.198 76.179 168.036 76.764 168.036 77.448C168.036 78.114 168.198 78.69 168.522 79.176C168.846 79.644 169.296 80.004 169.872 80.256C170.466 80.508 171.159 80.634 171.951 80.634Z" fill="#101828" fill-opacity="0.6"/>
<path d="M152.547 85.521C151.215 85.521 150 85.233 148.902 84.657C147.822 84.063 146.958 83.244 146.31 82.2C145.68 81.138 145.365 79.914 145.365 78.528C145.365 77.106 145.689 75.873 146.337 74.829C146.985 73.785 147.858 72.975 148.956 72.399C150.072 71.805 151.332 71.508 152.736 71.508C154.284 71.508 155.526 71.823 156.462 72.453C157.416 73.065 158.109 73.902 158.541 74.964C158.973 76.026 159.189 77.214 159.189 78.528C159.189 79.32 159.063 80.13 158.811 80.958C158.559 81.768 158.172 82.524 157.65 83.226C157.128 83.91 156.444 84.468 155.598 84.9C154.752 85.314 153.735 85.521 152.547 85.521ZM153.681 82.821C154.743 82.821 155.661 82.641 156.435 82.281C157.209 81.921 157.803 81.417 158.217 80.769C158.631 80.121 158.838 79.374 158.838 78.528C158.838 77.61 158.622 76.836 158.19 76.206C157.776 75.558 157.182 75.072 156.408 74.748C155.652 74.406 154.743 74.235 153.681 74.235C152.187 74.235 151.026 74.631 150.198 75.423C149.37 76.197 148.956 77.232 148.956 78.528C148.956 79.392 149.154 80.148 149.55 80.796C149.946 81.426 150.495 81.921 151.197 82.281C151.917 82.641 152.745 82.821 153.681 82.821ZM158.838 71.805H162.348V85.224H159.081C159.081 85.224 159.054 85.053 159 84.711C158.964 84.351 158.928 83.901 158.892 83.361C158.856 82.821 158.838 82.29 158.838 81.768V71.805Z" fill="#101828" fill-opacity="0.6"/>
<path d="M115.855 71.805H119.365V85.224H115.855V71.805ZM125.602 71.508C126.43 71.508 127.195 71.616 127.897 71.832C128.599 72.048 129.211 72.381 129.733 72.831C130.255 73.281 130.66 73.857 130.948 74.559C131.236 75.243 131.38 76.062 131.38 77.016V85.224H127.87V77.637C127.87 76.503 127.591 75.675 127.033 75.153C126.493 74.613 125.602 74.343 124.36 74.343C123.424 74.343 122.578 74.523 121.822 74.883C121.066 75.243 120.454 75.702 119.986 76.26C119.518 76.8 119.248 77.367 119.176 77.961L119.149 76.584C119.239 75.954 119.446 75.342 119.77 74.748C120.094 74.154 120.526 73.614 121.066 73.128C121.624 72.624 122.281 72.228 123.037 71.94C123.793 71.652 124.648 71.508 125.602 71.508ZM137.293 71.508C138.121 71.508 138.886 71.616 139.588 71.832C140.29 72.048 140.902 72.381 141.424 72.831C141.946 73.281 142.351 73.857 142.639 74.559C142.945 75.243 143.098 76.062 143.098 77.016V85.224H139.588V77.637C139.588 76.503 139.309 75.675 138.751 75.153C138.193 74.613 137.293 74.343 136.051 74.343C135.115 74.343 134.269 74.523 133.513 74.883C132.757 75.243 132.145 75.702 131.677 76.26C131.209 76.8 130.948 77.367 130.894 77.961L130.84 76.503C130.93 75.909 131.146 75.315 131.488 74.721C131.83 74.127 132.28 73.587 132.838 73.101C133.396 72.615 134.044 72.228 134.782 71.94C135.538 71.652 136.375 71.508 137.293 71.508Z" fill="#101828" fill-opacity="0.6"/>
<path d="M108.343 67.755H111.934V85.224H108.343V67.755Z" fill="#101828" fill-opacity="0.6"/>
</svg>
